<svg width="41" height="13" viewBox="0 0 41 13" fill="none" xmlns="http://www.w3.org/2000/svg">
   <path d="M34.4396 2.11726C34.0757 1.74729 34.0757 1.14744 34.4396 0.777476C34.8035 0.407508 35.3934 0.407508 35.7574 0.777476L40.7271 5.83016C40.909 6.01509 41 6.25761 41 6.50001C41 6.62848 40.9749 6.751 40.9293 6.86267C40.8838 6.97433 40.8164 7.07905 40.7271 7.16987L35.7574 12.2225C35.3934 12.5925 34.8035 12.5925 34.4396 12.2225C34.0757 11.8525 34.0757 11.2528 34.4396 10.8828L37.8186 7.44738H0.931818C0.417206 7.44738 -2.38419e-07 7.02322 -2.38419e-07 6.50001C-2.38419e-07 5.97681 0.417206 5.55264 0.931818 5.55264H37.8186L34.4396 2.11726Z" fill="black"/>
</svg>
