<svg width="20" height="20" viewBox="0 0 23 23" fill="none" xmlns="http://www.w3.org/2000/svg">
   <path d="M1.9374 9.14737C4.4926 14.7125 9.03926 19.1372 14.6919 21.5359L15.5981 21.9396C17.6713 22.8633 20.1082 22.1616 21.3726 20.2769L22.5567 18.512C22.9418 17.9381 22.8246 17.1652 22.2867 16.7313L18.2709 13.4916C17.6811 13.0157 16.8138 13.1267 16.3625 13.7355L15.1202 15.4119C11.9325 13.8393 9.34433 11.2513 7.77193 8.06357L9.4482 6.82128C10.0571 6.37005 10.1679 5.50269 9.69206 4.91285L6.4523 0.896933C6.0185 0.359227 5.24584 0.241933 4.67201 0.626693L2.89489 1.81829C0.998437 3.08989 0.300597 5.54703 1.24557 7.62563L1.93636 9.14512L1.9374 9.14737Z" fill="#3CB27F"/>
</svg>
