<svg width="41" height="13" viewBox="0 0 41 13" fill="none" xmlns="http://www.w3.org/2000/svg">
   <path d="M6.56037 2.11726C6.92428 1.74729 6.92428 1.14744 6.56037 0.777476C6.19647 0.407508 5.60656 0.407508 5.24262 0.777476L0.272923 5.83016C0.0909701 6.01509 0 6.25761 0 6.50001C0 6.62848 0.0251467 6.751 0.0707064 6.86267C0.116179 6.97433 0.18358 7.07905 0.272923 7.16987L5.24262 12.2225C5.60656 12.5925 6.19647 12.5925 6.56037 12.2225C6.92428 11.8525 6.92428 11.2528 6.56037 10.8828L3.18143 7.44738H40.0682C40.5828 7.44738 41 7.02322 41 6.50001C41 5.97681 40.5828 5.55264 40.0682 5.55264H3.18143L6.56037 2.11726Z" fill="black"/>
</svg>
