<svg width="31" height="23" viewBox="0 0 31 23" fill="none" xmlns="http://www.w3.org/2000/svg">
   <path d="M5.69126 21.3668C5.69126 21.3668 1.95548 18.7062 0.880299 14.1784C-0.194882 9.64992 1.44662 4.1598 4.55931 1.38635C7.67268 -1.3871 13.2763 0.480789 15.7666 2.80146C18.2569 5.12213 18.2569 5.12212 18.2569 5.12212C18.2569 5.12212 20.6344 6.4237 23.7477 6.31084C26.8611 6.19731 29.6346 10.4426 30.3705 13.7824C31.1064 17.1222 29.3514 21.5371 29.3514 21.5371L5.69126 21.3668Z" fill="#3CB27F" fill-opacity="0.1"/>
   <path d="M3.99381 22.046C3.99381 22.046 1.38999 20.6309 0.710818 17.3479C0.0316483 14.0649 2.97472 11.065 3.25788 9.42353C3.54103 7.78204 2.91795 5.74453 5.52178 4.15911C8.1256 2.57438 12.7669 3.14002 14.522 2.744C16.277 2.34799 18.3145 -0.36937 21.8239 0.253715C25.3333 0.876116 28.7298 2.74401 28.8994 6.81971C29.0691 10.8954 27.7675 11.0083 29.0691 13.2161C30.3706 15.4239 30.8802 16.9519 30.2578 19.2158C29.6354 21.4797 28.3331 22.1027 28.3331 22.1027L3.99381 22.046Z" fill="#3CB27F" fill-opacity="0.1"/>
   <path d="M9.42779 21.31C9.26569 21.1404 6.89031 16.3855 9.53586 12.0274C12.1814 7.66918 18.822 8.17805 21.4675 9.87631C24.113 11.5746 25.4085 13.7817 25.6786 16.1024C25.9488 18.423 24.1671 22.046 24.1671 22.046L9.42779 21.31Z" fill="#DBF2E8"/>
   <path d="M28.0579 13.3057H25.006C24.8173 13.3057 24.6641 13.1525 24.6641 12.9637V11.4398C24.6641 11.2511 24.8173 11.0979 25.006 11.0979H28.0579C28.2466 11.0979 28.3998 11.2511 28.3998 11.4398V12.9637C28.3998 13.1525 28.2466 13.3057 28.0579 13.3057Z" fill="#3CB27F"/>
   <path d="M26.5304 14.1688L27.014 13.0225H26.0469L26.5304 14.1688Z" fill="#3CB27F"/>
   <path d="M26.5195 11.8228H27.3936V11.9507L27.8218 11.7038L27.3936 11.4569V11.5848H26.5195V11.8228Z" fill="#193C3F"/>
   <path d="M27.8218 12.3249H26.9484V12.1977L26.5195 12.4446L26.9484 12.6915V12.5636H27.8218V12.3249Z" fill="white"/>
   <path d="M25.9816 12.5499L25.9399 12.5649C25.9399 12.5649 25.8099 12.4172 25.7429 12.2558C25.6758 12.0944 25.6731 11.8981 25.6731 11.8981L25.7032 11.8851L25.5185 11.4433C25.4857 11.4692 25.4542 11.5021 25.4289 11.5452C25.3243 11.7216 25.3346 11.9932 25.4399 12.2579C25.5452 12.5225 25.6574 12.7592 25.8626 12.9076C25.9836 12.9952 26.0876 13.0109 26.1683 12.9979L25.9816 12.5499Z" fill="#193C3F"/>
   <path d="M26.116 12.4979L26.0586 12.5191L26.2474 12.9719C26.2686 12.9651 26.2877 12.9562 26.3048 12.9473C26.3534 12.9206 26.3753 12.8618 26.3547 12.8098L26.2563 12.5608C26.2344 12.5054 26.1721 12.4774 26.116 12.4979Z" fill="#193C3F"/>
   <path d="M25.6637 11.3653C25.6405 11.3735 25.6152 11.3851 25.5898 11.4002L25.7786 11.8516L25.8422 11.8249C25.8976 11.8016 25.9236 11.7394 25.9024 11.6833L25.8032 11.4289C25.7814 11.3742 25.7198 11.3454 25.6637 11.3653Z" fill="#193C3F"/>
   <path d="M8.54402 20.546V15.4519C8.54402 15.4519 8.48725 14.0792 9.20882 13.6832C9.9304 13.2872 12.9726 13.4992 12.9726 13.4992V20.546H8.54402Z" fill="#1F6D4C"/>
   <path d="M13.9246 8.73C13.9246 8.73 13.7406 10.2723 13.6701 10.3995C13.5997 10.5268 13.5997 10.5268 13.5997 10.5268L13.2461 10.7675C13.2461 10.7675 13.9253 11.7298 14.7604 11.8851C15.5955 12.041 15.5244 11.5452 15.5244 11.5452L15.3971 11.2764L15.5668 9.80449C15.5661 9.80586 14.0518 9.11233 13.9246 8.73Z" fill="#FBD3CC"/>
   <path d="M12.8086 10.8954L13.3605 10.6547C13.3605 10.6547 13.7142 11.2346 14.5349 11.5746C15.3557 11.9145 15.37 11.7162 15.4124 11.5746C15.4548 11.433 15.3981 11.2777 15.3981 11.2777L15.4589 10.7826L15.7872 10.892L16.9267 20.1083L13.9973 20.2499L12.8086 10.8954Z" fill="white"/>
   <path d="M15.5156 10.7914C15.5156 10.7914 15.714 11.249 15.898 12.3242C16.0819 13.3994 16.2516 15.2112 16.294 16.456C16.3364 17.7008 16.3644 20.5454 16.3644 20.5454C16.3644 20.5454 20.0154 20.5454 20.0578 20.5454C20.1002 20.5454 20.3546 19.1446 20.3546 19.1446C20.3546 19.1446 18.7412 17.7623 18.6564 17.536C18.5996 17.3848 18.6283 14.5881 18.3876 13.3002C18.1468 12.0123 17.8356 11.7531 17.1845 11.4323C16.5128 11.1013 15.5156 10.7914 15.5156 10.7914Z" fill="#3CB27F"/>
   <path d="M17.4374 18.9251C17.4182 18.9251 17.4032 18.91 17.4032 18.8909C17.4032 18.7896 17.3854 17.352 17.3676 15.9622C17.3505 14.5717 17.332 13.134 17.332 13.0328C17.332 13.0136 17.3471 12.9986 17.3662 12.9986C17.3854 12.9986 17.4004 13.0136 17.4004 13.0328C17.4004 13.134 17.4182 14.5717 17.436 15.9615C17.4531 17.352 17.4716 18.7896 17.4716 18.8909C17.4716 18.9093 17.4558 18.9251 17.4374 18.9251Z" fill="#1F6D4C"/>
   <path d="M10.0788 18.579L10.0508 20.546H14.3529C14.3529 20.546 14.5369 18.8765 14.4664 18.7206C14.3946 18.5653 10.0788 18.579 10.0788 18.579Z" fill="#3CB27F"/>
   <path d="M14.8669 10.3578C15.042 10.4994 15.2821 10.6122 15.4688 10.6813L15.57 9.80586C15.57 9.80586 14.4326 9.28468 14.0469 8.89756C14.1276 9.33735 14.3259 9.92076 14.8669 10.3578Z" fill="#193C3F"/>
   <path d="M16.9021 5.85737C16.9021 5.85737 17.199 6.36692 17.2557 6.98932C17.3125 7.61172 17.2557 9.21082 16.7462 9.88999C16.2366 10.5692 15.1751 10.3708 14.6943 9.96043C14.2525 9.58357 13.8168 9.16773 13.7039 8.34698C13.5904 7.52623 13.9447 5.96954 14.9494 5.64398C15.9535 5.31978 16.9021 5.85737 16.9021 5.85737Z" fill="#FBD3CC"/>
   <path d="M18.1811 19.6569C18.1811 19.6569 18.1312 19.6569 18.0553 19.6549C18.0375 19.6542 18.0177 19.6549 17.9971 19.6542C17.924 19.6521 17.8351 19.6501 17.7455 19.6473C17.7256 19.6466 17.7051 19.646 17.6853 19.6453C17.5964 19.6432 17.5204 19.6542 17.4493 19.6501H17.4472C17.4322 19.6494 17.4103 19.6514 17.3925 19.6521C17.3836 19.6528 17.3754 19.6535 17.37 19.6528C17.3289 19.6453 17.3207 19.6357 17.2763 19.6159C17.2188 19.5899 16.4411 19.4162 15.8085 19.4203C15.1765 19.423 14.6095 19.4661 14.5172 19.3888C14.4242 19.3101 14.3681 18.5161 14.9077 18.4641L15.5712 18.7158C15.5712 18.7158 17.0861 18.5359 17.6415 18.9456C18.1982 19.3553 18.1811 19.6569 18.1811 19.6569Z" fill="#FBD3CC"/>
   <path d="M17.4487 19.6501C17.4336 19.6494 17.4117 19.6514 17.3939 19.6521C17.3803 19.6302 17.3515 19.5906 17.3358 19.5741C17.1648 19.3997 16.7517 19.2869 16.6019 19.2506C16.5882 19.2472 16.5793 19.2335 16.5828 19.2199C16.5855 19.2062 16.5999 19.198 16.6142 19.2007C16.8324 19.2534 17.2954 19.3881 17.4268 19.609C17.4309 19.6152 17.4418 19.6364 17.4487 19.6501Z" fill="#223A7A"/>
   <path d="M17.7391 19.6466C17.7193 19.646 17.6988 19.646 17.6789 19.6446C17.4922 19.304 17.1865 19.2062 16.8096 19.0851L16.7871 19.0776C16.7741 19.0735 16.7666 19.0584 16.7707 19.0448C16.7748 19.0318 16.7891 19.0242 16.8035 19.0283L16.8254 19.0359C17.2241 19.1645 17.5456 19.267 17.7391 19.6466Z" fill="#223A7A"/>
   <path d="M18.0554 19.6542C18.0376 19.6535 18.0177 19.6542 17.9972 19.6535C17.8837 19.4155 17.5089 19.0167 17.0137 18.9244C16.9993 18.9216 16.9904 18.9087 16.9925 18.8943C16.9952 18.8806 17.0089 18.8717 17.0226 18.8738C17.5328 18.9702 17.9452 19.3867 18.0554 19.6542Z" fill="#223A7A"/>
   <path d="M14.0434 7.64798C14.0434 7.64798 14.3546 7.49956 14.5742 7.08166C14.7937 6.66445 14.765 6.28895 14.765 6.28895C14.765 6.28895 15.161 6.22534 15.7554 6.40249C16.3497 6.57963 17.0569 6.8197 17.6513 6.48046C18.2457 6.14053 18.2457 5.5961 17.9557 5.36971C17.6308 5.11596 16.9865 5.27054 16.9865 5.27054C16.9865 5.27054 17.2341 5.02979 17.1 4.88821C16.9653 4.74663 16.4776 4.93061 16.4776 4.93061C16.4776 4.93061 15.8833 4.45663 14.7582 4.5134C13.633 4.57017 13.0955 5.35535 13.0318 6.23287C12.9682 7.11039 13.2863 7.9879 13.2863 7.9879L14.0434 7.64798Z" fill="#193C3F"/>
   <path d="M16.3256 7.86068C16.262 8.01799 16.2634 8.20061 16.2476 8.36681C16.2353 8.49676 16.2114 8.64792 16.3304 8.73547C16.3872 8.77719 16.656 8.89004 16.5178 8.98169C16.4651 9.01657 16.3769 9.007 16.3167 9.00426C16.2757 9.00221 16.234 9.00084 16.1922 8.99742C16.1478 8.994 16.1047 8.98101 16.0602 8.98032C16.0342 8.98032 16.026 9.01452 16.0472 9.0282C16.1184 9.07266 16.2237 9.08702 16.3065 9.08976C16.3899 9.09318 16.446 9.08907 16.5212 9.05214C16.567 9.02957 16.6122 8.99674 16.619 8.94202C16.6272 8.88047 16.5807 8.82506 16.5342 8.79018C16.4809 8.75051 16.4152 8.73205 16.3612 8.69306C16.2859 8.63971 16.2921 8.54875 16.2976 8.4653C16.3106 8.26422 16.3564 8.06655 16.3742 7.86616C16.3776 7.83675 16.3352 7.83674 16.3256 7.86068Z" fill="#193C3F"/>
   <path d="M16.9016 8.33057C16.8804 8.44958 16.7935 8.53439 16.708 8.51934C16.6219 8.50429 16.5699 8.39486 16.5904 8.27585C16.6116 8.15684 16.6985 8.07203 16.784 8.08708C16.8701 8.10281 16.9228 8.21156 16.9016 8.33057Z" fill="#193C3F"/>
   <path d="M15.8199 8.23618C15.8007 8.36476 15.7098 8.45778 15.6174 8.4441C15.5244 8.43042 15.4649 8.31483 15.4841 8.18625C15.5032 8.05766 15.5942 7.96465 15.6865 7.97832C15.7788 7.992 15.839 8.10759 15.8199 8.23618Z" fill="#193C3F"/>
   <path d="M16.65 7.83948C16.7163 7.85043 16.7826 7.83948 16.8497 7.84427C16.8654 7.84564 16.8818 7.84769 16.8976 7.84906C16.9092 7.85043 16.8764 7.84564 16.8921 7.84837C16.8955 7.84906 16.8989 7.84974 16.9023 7.84974C16.9105 7.85111 16.9188 7.85316 16.927 7.85521C16.9413 7.85863 16.955 7.86411 16.9694 7.86684C16.9824 7.86958 16.9967 7.873 17.0097 7.87231C17.0172 7.87163 17.0241 7.87026 17.0316 7.86958C17.0268 7.87026 17.0227 7.87094 17.0179 7.87231C17.0179 7.87368 17.0426 7.87026 17.0453 7.86958C17.0829 7.86068 17.1068 7.81691 17.0959 7.77998C17.0932 7.76903 17.0884 7.76014 17.0815 7.75125C17.0788 7.74783 17.0761 7.74373 17.0726 7.74031C17.0754 7.74304 17.0781 7.74646 17.0809 7.7492C17.0781 7.7451 17.0754 7.74168 17.072 7.73757C17.0685 7.73142 17.0631 7.72595 17.0569 7.72253C17.0514 7.71842 17.0467 7.71432 17.0412 7.71021C17.0234 7.6979 17.0008 7.69106 16.9796 7.68559C16.94 7.67533 16.8989 7.67054 16.8579 7.66986C16.8175 7.66986 16.7772 7.67396 16.7375 7.67944C16.7019 7.68422 16.663 7.69653 16.6342 7.71774C16.6123 7.73415 16.5987 7.75536 16.6021 7.78408C16.6055 7.80734 16.6247 7.83469 16.65 7.83948Z" fill="#193C3F"/>
   <path d="M15.8976 7.65003C15.8887 7.64455 15.8791 7.63977 15.8703 7.63566C15.8621 7.63224 15.8402 7.62061 15.8566 7.62951C15.8504 7.62609 15.8443 7.62267 15.8381 7.61993C15.8108 7.60625 15.782 7.59668 15.7526 7.58915C15.6883 7.57274 15.6199 7.56863 15.5536 7.57547C15.4831 7.583 15.4182 7.6001 15.3573 7.63703C15.3484 7.6425 15.3395 7.64729 15.3327 7.65481C15.3279 7.66097 15.3231 7.66712 15.3183 7.67328C15.3197 7.67123 15.321 7.66918 15.3224 7.66712C15.3033 7.68012 15.2923 7.70201 15.293 7.72458C15.293 7.74646 15.3046 7.76493 15.3238 7.77519C15.347 7.78818 15.3689 7.78203 15.3929 7.77587C15.3812 7.77587 15.3689 7.77587 15.3573 7.77587C15.3771 7.77861 15.3908 7.77998 15.4106 7.77519C15.4113 7.77519 15.4298 7.7704 15.4175 7.77314C15.4059 7.77587 15.4366 7.77109 15.44 7.7704C15.4442 7.76972 15.4654 7.76767 15.4428 7.76972C15.4469 7.76903 15.451 7.76903 15.4551 7.76835C15.466 7.76698 15.4763 7.76561 15.4872 7.76493C15.5338 7.76151 15.5803 7.75946 15.6275 7.75741C15.6705 7.75604 15.715 7.75535 15.7588 7.75741C15.7772 7.75809 15.7957 7.75877 15.8142 7.75946C15.8244 7.75946 15.8203 7.76151 15.8128 7.75946C15.8169 7.76083 15.8203 7.76151 15.8244 7.76219C15.832 7.76425 15.8395 7.76698 15.847 7.76972C15.8771 7.78134 15.9133 7.75946 15.9243 7.73142C15.9366 7.702 15.9263 7.66712 15.8976 7.65003Z" fill="#193C3F"/>
   <path d="M16.2288 9.61709C16.2938 9.48645 16.4121 9.3907 16.5482 9.32914C16.4299 9.31683 15.8697 9.26554 15.7288 9.34556C15.5708 9.43516 15.7582 9.79629 16.0852 9.81407C16.1194 9.81612 16.1508 9.81339 16.1809 9.8086C16.1837 9.74294 16.1987 9.67796 16.2288 9.61709Z" fill="#193C3F"/>
   <path d="M13.6445 8.85789C13.6445 8.85789 13.7013 9.07744 14.0269 9.33188C14.3524 9.58631 14.8244 9.77303 14.8244 9.77303L14.862 9.60819C14.862 9.60819 14.3736 9.39617 14.1472 9.16226C13.9208 8.92903 13.8928 8.80112 13.8928 8.80112L13.6445 8.85789Z" fill="#DEE1EB"/>
   <path d="M14.919 9.48577C15.181 9.47346 15.3273 9.6807 15.3451 9.81475C15.3636 9.94881 15.2377 10.0993 14.9429 9.96727C14.5777 9.80244 14.657 9.4974 14.919 9.48577Z" fill="#193C3F"/>
   <path d="M13.8492 7.2376C13.8492 7.2376 13.9621 6.42438 14.5072 5.87174C15.5475 4.81776 16.4319 4.88137 16.4319 4.88137C16.4319 4.88137 16.425 4.73295 16.0919 4.61941C15.7794 4.5134 15.6392 4.57017 15.6392 4.57017C15.6392 4.57017 14.7828 4.64061 14.0613 5.44016C13.3397 6.23971 13.2617 7.2588 13.2617 7.2588L13.8492 7.2376Z" fill="#DEE1EB"/>
   <path d="M13.7667 7.13843C13.0855 7.02284 12.7052 7.55564 12.6772 8.09391C12.6492 8.6315 13.0397 9.04051 13.5616 8.99947C14.7359 8.90714 14.6019 7.28 13.7667 7.13843Z" fill="white"/>
   <path d="M13.4287 8.47625C13.2488 8.47625 13.097 8.38596 13.0101 8.2266C12.9171 8.0563 12.9246 7.84632 13.03 7.69175C13.0382 7.68012 13.0539 7.67738 13.0655 7.68491C13.0772 7.69311 13.0806 7.70885 13.0724 7.72047C12.978 7.85932 12.9711 8.04809 13.0553 8.20198C13.1346 8.34766 13.2755 8.43042 13.4424 8.42495C13.5983 8.42085 13.7303 8.34971 13.8138 8.22455C13.9095 8.0816 13.9314 7.88462 13.8699 7.72184C13.8083 7.56043 13.6407 7.45099 13.4882 7.47083C13.4745 7.47288 13.4615 7.46262 13.4595 7.44894C13.4574 7.43458 13.4677 7.42227 13.4814 7.42022C13.6599 7.39628 13.8473 7.51871 13.9177 7.70406C13.9855 7.88189 13.9608 8.09733 13.8562 8.25328C13.7625 8.3928 13.6161 8.47214 13.4438 8.47625C13.4383 8.47625 13.4335 8.47625 13.4287 8.47625Z" fill="#818FB3"/>
   <path d="M12.9375 10.6971C12.9375 10.6971 10.8713 11.2066 10.1497 12.0274C9.42811 12.8481 9.08819 16.8951 9.07451 17.6454C9.06014 18.3957 9.58406 18.7069 9.89526 18.9189C10.2065 19.1309 11.5792 19.5133 12.6831 19.57C13.787 19.6268 14.8341 19.57 14.8341 19.57C14.8341 19.57 14.8307 19.3293 15.0003 18.9757C15.1576 18.6474 15.3573 18.5797 15.3573 18.5797L14.4094 18.2397C14.4094 18.2397 14.2432 15.2652 13.9846 13.8248C13.6878 12.1689 12.9375 10.6971 12.9375 10.6971Z" fill="#3CB27F"/>
   <path d="M16.3641 17.7644C16.3593 17.7644 16.3546 17.7637 16.3505 17.7617C16.3334 17.7541 16.3251 17.7336 16.3334 17.7165C16.5269 17.2795 16.7273 16.4225 16.8402 15.8206L16.8497 15.772C16.8839 15.5949 16.9263 15.3753 16.8415 15.2228C16.7984 15.1455 16.7006 14.9773 16.6063 14.8159C16.5084 14.6483 16.4168 14.4896 16.3908 14.4424C16.3409 14.3501 16.4982 14.1032 16.7253 13.7646C16.7868 13.673 16.8395 13.5943 16.8703 13.541C16.951 13.4007 16.8976 13.2728 16.8347 13.1237L16.8135 13.0724C16.7567 12.9336 16.6924 12.7948 16.6302 12.66C16.6049 12.6053 16.5796 12.5499 16.5543 12.4945C16.5208 12.4213 16.4879 12.3468 16.4537 12.2715C16.254 11.8256 16.0468 11.3646 15.7821 10.9193C15.7725 10.9029 15.778 10.8824 15.7937 10.8722C15.8101 10.8626 15.8306 10.868 15.8409 10.8838C16.1076 11.3325 16.3156 11.7955 16.516 12.2428C16.5495 12.318 16.583 12.3926 16.6158 12.4651C16.6411 12.5205 16.6664 12.5752 16.6917 12.6299C16.754 12.7653 16.819 12.9049 16.8757 13.0451L16.8969 13.0957C16.9605 13.2469 17.0262 13.4042 16.9284 13.5731C16.8962 13.6285 16.8429 13.7085 16.7807 13.8009C16.6623 13.9773 16.4161 14.3446 16.4496 14.4082C16.4749 14.4547 16.5666 14.6127 16.6637 14.7796C16.7581 14.9417 16.8559 15.11 16.8997 15.1879C16.9968 15.3617 16.9516 15.5956 16.9154 15.783L16.9058 15.8315C16.8648 16.0504 16.6466 17.1721 16.3942 17.7425C16.3901 17.7569 16.3771 17.7644 16.3641 17.7644Z" fill="#1F6D4C"/>
   <path d="M14.3462 17.8848C14.3373 17.8848 14.3284 17.8814 14.3222 17.8745C14.1615 17.7124 13.3859 16.3698 13.3285 16.1174C13.297 15.9793 13.3763 15.6284 13.4529 15.2891C13.5124 15.0265 13.574 14.755 13.5562 14.6811C13.5302 14.571 13.3319 14.4089 13.1397 14.2523C12.9078 14.0628 12.6684 13.8672 12.6219 13.6907C12.5693 13.4903 12.6144 12.236 12.6438 11.4063C12.6548 11.1081 12.663 10.8722 12.663 10.788C12.663 10.7689 12.678 10.7538 12.6972 10.7538C12.7163 10.7538 12.7314 10.7689 12.7314 10.788C12.7314 10.8735 12.7231 11.1095 12.7122 11.4084C12.6842 12.184 12.6377 13.4821 12.6876 13.673C12.7286 13.8275 12.9694 14.0245 13.1821 14.1982C13.3921 14.3699 13.5897 14.5313 13.6212 14.664C13.6424 14.7529 13.5849 15.008 13.5179 15.3028C13.4461 15.6188 13.3654 15.9772 13.3934 16.1003C13.4502 16.3479 14.2114 17.6652 14.3694 17.8246C14.3824 17.8383 14.3824 17.8595 14.3694 17.8731C14.364 17.8813 14.3551 17.8848 14.3462 17.8848Z" fill="#1F6D4C"/>
   <path d="M11.5618 17.2973C11.5604 17.2973 11.5583 17.2973 11.557 17.2973C11.5385 17.2945 11.5255 17.2774 11.5276 17.2583C11.5529 17.0804 11.9455 13.5375 11.9632 13.266C11.9646 13.2469 11.981 13.2325 11.9995 13.2339C12.0186 13.2352 12.0323 13.2516 12.0316 13.2701C12.0139 13.5416 11.6206 17.0893 11.5953 17.2672C11.5932 17.2849 11.5782 17.2973 11.5618 17.2973Z" fill="#1F6D4C"/>
   <path d="M14.3841 18.2596C14.38 18.2596 14.3752 18.2589 14.3711 18.2568C14.2842 18.2213 13.8998 18.092 13.4135 17.9279C12.4314 17.5968 11.0867 17.1434 10.8309 17.01C10.8138 17.0011 10.8077 16.9806 10.8166 16.9642C10.8254 16.9471 10.846 16.9409 10.8624 16.9498C11.1134 17.0804 12.5107 17.5517 13.4354 17.8636C13.9231 18.0284 14.3082 18.1577 14.3971 18.1939C14.4149 18.2008 14.4231 18.2213 14.4162 18.2384C14.4101 18.2514 14.3971 18.2596 14.3841 18.2596Z" fill="#1F6D4C"/>
   <path d="M13.9093 19.6706C13.0448 19.6706 11.3698 19.5146 10.097 19.0646C10.0792 19.0584 10.0696 19.0386 10.0764 19.0208C10.0826 19.003 10.1024 18.9935 10.1202 19.0003C11.7282 19.5694 13.9777 19.6665 14.3963 19.5721C14.4148 19.568 14.4332 19.5796 14.4374 19.5981C14.4415 19.6165 14.4298 19.635 14.4114 19.6391C14.3197 19.659 14.1446 19.6706 13.9093 19.6706Z" fill="#8593B6"/>
   <path d="M4.02173 11.1745C4.28984 11.4104 4.62977 11.5616 4.86505 11.8345C4.95739 11.9419 5.04083 12.0561 5.12701 12.1689C5.18993 12.251 5.35682 12.3871 5.38349 12.4897C5.39512 12.5348 5.39307 12.4733 5.38076 12.4282C5.38007 12.4261 5.37939 12.4247 5.3787 12.4227C5.35545 12.2141 5.33835 12.0048 5.33083 11.7948C5.3233 11.5855 5.3363 11.3755 5.3233 11.1669C5.30484 10.8721 5.2125 10.5869 4.97175 10.4023C4.85411 10.312 4.70295 10.2573 4.5942 10.1567C4.49161 10.0617 4.53265 9.95291 4.59284 9.8469C4.6496 9.74772 4.718 9.64992 4.73989 9.53569C4.76519 9.40574 4.71595 9.27169 4.65029 9.16157C4.51008 8.92629 4.19956 8.66365 3.90477 8.69921C3.65923 8.72863 3.63119 9.01178 3.63529 9.20876C3.63871 9.40027 3.65787 9.59178 3.65923 9.78329C3.66129 9.98027 3.62777 10.1738 3.62504 10.3701C3.6223 10.7039 3.77619 10.9583 4.02173 11.1745Z" fill="#3CB27F"/>
   <path d="M6.514 14.2372C6.58856 14.0587 6.67473 13.8925 6.78006 13.7304C6.92438 13.5081 7.08511 13.2913 7.18223 13.0423C7.2814 12.7879 7.26704 12.5164 7.27662 12.249C7.28346 12.052 7.34228 11.8564 7.32654 11.6587C7.31902 11.5643 7.2643 11.4111 7.14188 11.4268C7.04681 11.4392 6.99004 11.5568 6.95379 11.6327C6.89018 11.764 6.84572 11.9042 6.79853 12.0424C6.78006 12.0964 6.76228 12.1512 6.73903 12.2031C6.72535 12.2332 6.68226 12.3071 6.64122 12.2975C6.57146 12.2804 6.63506 11.9966 6.64532 11.946C6.6973 11.6936 6.77528 11.459 6.78622 11.1991C6.80195 10.8222 6.77254 10.3735 6.40389 10.1677C6.30745 10.1136 6.1857 10.0815 6.09405 10.1622C6.00377 10.2415 5.97846 10.379 5.96479 10.4926C5.92375 10.8407 6.00582 11.1697 6.11731 11.4973C6.20964 11.7675 6.31908 12.0465 6.32728 12.3358C6.33481 12.6142 6.19049 12.8604 6.1221 13.1237C6.01403 13.5423 6.03592 13.7646 6.03592 13.9C6.03523 14.0697 6.04139 14.2379 6.0537 14.4075C6.06533 14.5635 6.07832 14.7187 6.09747 14.874C6.10158 14.9054 6.105 14.9383 6.1091 14.9711C6.04891 14.8268 6.02839 14.662 5.97846 14.517C5.89023 14.2598 5.78832 14.0074 5.70351 13.7489C5.63375 13.5355 5.56741 13.32 5.47576 13.1142C5.38958 12.9213 5.28493 12.7175 5.12352 12.5759C5.02571 12.4904 4.90807 12.4405 4.77743 12.4411C4.69399 12.4418 4.61876 12.4706 4.53942 12.4918C4.44161 12.5178 4.36432 12.5089 4.28362 12.4466C4.01961 12.2435 3.9389 11.8796 3.74398 11.6225C3.59829 11.4309 3.25221 11.104 2.99778 11.3133C2.86304 11.4241 2.82542 11.6382 2.83294 11.803C2.84184 12.0089 2.93212 12.1977 3.03881 12.37C3.15304 12.5533 3.30009 12.7175 3.40473 12.9056C3.46697 13.017 3.47655 13.1237 3.46629 13.2489C3.45671 13.3672 3.44645 13.4814 3.48681 13.5957C3.60787 13.9383 3.9861 13.8905 4.2802 13.8993C4.48607 13.9055 4.7063 13.9363 4.90192 14.0019C5.12762 14.0779 5.27467 14.2249 5.35538 14.4479C5.41352 14.6093 5.44498 14.7933 5.55509 14.9301C5.60708 14.9944 5.67547 15.0422 5.75071 15.0758C5.86561 15.1264 6.21511 15.1483 6.21717 15.1168C6.22606 15.0101 6.27667 14.8972 6.30813 14.796C6.36695 14.6066 6.43672 14.4212 6.514 14.2372Z" fill="#3CB27F"/>
   <path d="M8.13621 14.1729C8.10611 13.9773 8.11158 13.7612 8.01857 13.5813C8.01173 13.5683 7.99463 13.5649 7.98232 13.5717C7.91597 13.6087 7.91324 13.716 7.90777 13.7817C7.89887 13.8911 7.90571 14.0006 7.89203 14.1093C7.86878 14.3008 7.82432 14.4978 7.75524 14.6777C7.67727 14.8815 7.53569 14.9971 7.32982 15.0607C7.19782 15.1017 7.06786 15.1373 6.95706 15.2249C6.85789 15.3035 6.78949 15.4116 6.73888 15.5258C6.60141 15.8343 6.53575 16.1783 6.47214 16.508C6.42905 16.7296 6.39417 16.9525 6.34013 17.1721C6.2861 17.3916 6.22865 17.6098 6.19787 17.8342C6.1924 17.8458 6.18693 17.8567 6.18214 17.8684C6.16778 17.9019 6.22044 17.9196 6.23822 17.8923C6.45093 17.5654 6.70947 17.2713 7.06308 17.0914C7.22244 17.01 7.43447 16.9929 7.56784 16.865C7.66906 16.7679 7.68274 16.6194 7.6677 16.4868C7.64786 16.313 7.56442 16.1701 7.47756 16.0217C7.42968 15.9403 7.37359 15.8534 7.39274 15.7542C7.41121 15.6612 7.4885 15.5921 7.5651 15.5443C7.71215 15.4533 7.88383 15.4123 8.00352 15.2809C8.115 15.1592 8.17724 15.0067 8.18956 14.8425C8.20734 14.6243 8.16972 14.3891 8.13621 14.1729Z" fill="#3CB27F"/>
   <path d="M5.23821 15.3021C5.05081 15.0607 4.82442 14.8521 4.56999 14.6832C4.43388 14.5929 4.11379 14.415 4.04881 14.6811C4.01119 14.8371 4.16372 14.9903 4.26426 15.0881C4.41541 15.2351 4.58982 15.3616 4.71704 15.5313C4.55904 15.5819 4.39421 15.5915 4.25742 15.7002C4.09532 15.8295 4.02214 16.0784 4.18355 16.2371C4.26221 16.3144 4.36617 16.3616 4.46329 16.4088C4.59051 16.4703 4.71977 16.5257 4.84972 16.5805C5.13083 16.6981 5.41536 16.8171 5.65474 17.0093C5.89892 17.2049 6.12873 17.5366 6.14788 17.856C6.14993 17.8868 6.1383 17.8588 6.15608 17.8451C6.16634 17.854 6.19917 17.8383 6.19917 17.8205C6.19439 17.3465 6.10889 16.8944 5.91533 16.4601C5.73613 16.0565 5.50906 15.651 5.23821 15.3021Z" fill="#3CB27F"/>
   <path d="M4.59197 10.8872C4.69525 11.102 4.80332 11.3119 4.91822 11.5212C5.02902 11.723 5.13914 11.9227 5.2219 12.1382C5.32381 12.4028 5.4305 12.6634 5.53789 12.9261C5.65005 13.199 5.74991 13.4767 5.82994 13.7605C5.98656 14.3145 6.10284 14.8842 6.16029 15.4574C6.1897 15.7488 6.20269 16.0415 6.19449 16.3342C6.18833 16.5627 6.16234 16.7891 6.14114 17.0168C6.11857 17.2535 6.10283 17.4935 6.12267 17.7309C6.13908 17.9292 6.17055 18.1659 6.32512 18.3075C6.35522 18.3355 6.3983 18.3006 6.38052 18.265C6.19722 17.8896 6.20748 17.4799 6.24236 17.0729C6.26151 16.8479 6.28819 16.6242 6.29639 16.3985C6.30597 16.1113 6.29503 15.8233 6.26767 15.5374C6.21432 14.9752 6.10215 14.4198 5.95715 13.8747C5.8826 13.595 5.79027 13.3207 5.68425 13.0519C5.57756 12.7824 5.45444 12.5198 5.35117 12.249C5.16445 11.7586 4.87992 11.3242 4.62754 10.8674C4.61523 10.8421 4.58103 10.8633 4.59197 10.8872Z" fill="#1F6D4C"/>
   <path d="M6.16642 14.8952C6.19583 14.5382 6.22798 14.1941 6.34767 13.8542C6.40375 13.6955 6.47146 13.541 6.52618 13.3816C6.57064 13.2496 6.63767 13.069 6.60347 12.9288C6.59937 12.9131 6.57679 12.9138 6.57269 12.9288C6.54944 13.0088 6.55217 13.0964 6.53576 13.1785C6.51934 13.2585 6.49814 13.3364 6.47352 13.4144C6.42085 13.5793 6.35177 13.7372 6.29227 13.9C6.17668 14.214 6.11717 14.5614 6.14248 14.8952C6.14317 14.9109 6.16505 14.9109 6.16642 14.8952Z" fill="#1F6D4C"/>
   <path d="M4.09896 12.844C4.24054 13.186 4.66664 13.2058 4.97716 13.2824C5.19876 13.3371 5.36223 13.4849 5.47987 13.6771C5.60845 13.887 5.69532 14.1333 5.76713 14.3679C5.76781 14.3706 5.77192 14.3692 5.77123 14.3665C5.68437 13.9561 5.55989 13.4623 5.13721 13.2715C4.79796 13.1183 4.35134 13.1956 4.13521 12.829C4.12358 12.8112 4.09075 12.8228 4.09896 12.844Z" fill="#1F6D4C"/>
   <path d="M5.94227 14.8412C5.95937 14.8637 5.97442 14.8877 5.9922 14.9102C6.00109 14.9212 6.0093 14.9314 6.02024 14.9403C6.03119 14.9492 6.04418 14.9608 6.05991 14.9602C6.06607 14.9602 6.07086 14.9526 6.06744 14.9472C6.0606 14.9355 6.0476 14.9287 6.03803 14.9205C6.02777 14.9116 6.01751 14.9027 6.00793 14.8931C5.9881 14.8747 5.97032 14.8542 5.95048 14.835C5.94638 14.8316 5.93885 14.8364 5.94227 14.8412Z" fill="#43588E"/>
   <path d="M5.05658 15.9273C5.30076 16.1277 5.52646 16.365 5.70566 16.6256C5.79115 16.7501 5.87049 16.8814 5.94231 17.0141C6.02028 17.1591 6.07226 17.3123 6.13313 17.4648C6.13792 17.4764 6.15912 17.4764 6.15707 17.4614C6.12287 17.1393 5.91906 16.8636 5.75627 16.5955C5.67146 16.4567 5.56613 16.3445 5.4526 16.2282C5.33564 16.1085 5.21595 15.995 5.07915 15.8986C5.06206 15.8869 5.04017 15.9136 5.05658 15.9273Z" fill="#1F6D4C"/>
   <path d="M7.0019 15.5477C6.88426 15.6147 6.88016 15.8001 6.87811 15.9191C6.874 16.1475 6.93009 16.3616 6.83023 16.5791C6.73995 16.7754 6.59563 16.9395 6.4821 17.1215C6.37608 17.2925 6.27075 17.5106 6.27349 17.7158C6.27349 17.7275 6.29196 17.7343 6.29743 17.722C6.34052 17.629 6.35556 17.523 6.38634 17.4251C6.42054 17.315 6.4691 17.2152 6.53134 17.1187C6.64077 16.9491 6.77483 16.7952 6.86374 16.6133C6.95745 16.4211 6.94377 16.231 6.93761 16.023C6.93351 15.8903 6.92051 15.677 7.02721 15.5785C7.04294 15.5634 7.02174 15.5374 7.0019 15.5477Z" fill="#1F6D4C"/>
   <path d="M6.21343 17.737C5.73945 17.7302 4.83594 17.7254 4.83594 17.7254L5.05959 19.3847C5.1102 19.7581 5.42824 20.0365 5.80511 20.0365H6.19428H6.23189H6.62107C6.99793 20.0365 7.31665 19.7581 7.36658 19.3847L7.59024 17.7254C7.59092 17.7254 6.68809 17.7309 6.21343 17.737Z" fill="white"/>
   <path d="M29.1347 14.688L26.4297 20.0461L18.543 20.1028L20.9765 14.612L29.1347 14.688Z" fill="#F6F7FA"/>
   <path d="M13.3086 20.0693L13.31 19.6405H18.4157L20.7644 14.4896H28.9295L29.1347 14.688H21.1584L18.7173 20.0652C18.7173 20.0652 13.3086 20.055 13.3086 20.0693Z" fill="#D9DEE8"/>
   <path d="M25.039 17.6447C24.95 17.9121 24.4665 18.1187 23.959 18.1057C23.4515 18.0927 23.1123 17.8663 23.2019 17.5989C23.2915 17.3315 23.7743 17.1249 24.2818 17.1379C24.7886 17.1502 25.1279 17.3773 25.039 17.6447Z" fill="#D9DEE8"/>
   <path d="M18.718 20.0994C18.7132 20.0994 18.7084 20.0987 18.7036 20.0967C18.6865 20.0892 18.679 20.0686 18.6865 20.0515L21.1364 14.6544H29.1346C29.1538 14.6544 29.1688 14.6695 29.1688 14.6886C29.1688 14.7078 29.1538 14.7228 29.1346 14.7228H21.1802L18.7481 20.0803C18.7433 20.0919 18.731 20.0994 18.718 20.0994Z" fill="white"/>
   <path d="M12.9522 20.4756H3.57031V22.5555H12.9522V20.4756Z" fill="#596B9B"/>
   <path d="M29.7785 20.4756H12.8984V22.5555H29.7785V20.4756Z" fill="#7A89AF"/>
   <path d="M12.9522 20.4756H12.8988H3.57031V20.8572H12.8988H12.9522H29.7789V20.4756H12.9522Z" fill="#BDC4D7"/>
   <path d="M13.3622 20.0652H3.11719V20.5748H13.3622V20.0652Z" fill="#6F7FA9"/>
   <path d="M30.1887 20.0652H13.3086V20.5748H30.1887V20.0652Z" fill="#9CA6C3"/>
   <path d="M10.5855 9.15131H7.27373C7.06855 9.15131 6.90234 8.98511 6.90234 8.77992V7.1268C6.90234 6.92161 7.06855 6.75541 7.27373 6.75541H10.5855C10.7906 6.75541 10.9568 6.92161 10.9568 7.1268V8.77992C10.9562 8.98511 10.7906 9.15131 10.5855 9.15131Z" fill="white"/>
   <path d="M11.9004 7.95302L10.6562 7.42842V8.4783L11.9004 7.95302Z" fill="white"/>
   <path d="M8.14319 8.18215C8.26973 8.18215 8.37231 8.07956 8.37231 7.95302C8.37231 7.82648 8.26973 7.7239 8.14319 7.7239C8.01665 7.7239 7.91406 7.82648 7.91406 7.95302C7.91406 8.07956 8.01665 8.18215 8.14319 8.18215Z" fill="#223A7A"/>
   <path d="M8.92834 8.18215C9.05489 8.18215 9.15747 8.07956 9.15747 7.95302C9.15747 7.82648 9.05489 7.7239 8.92834 7.7239C8.8018 7.7239 8.69922 7.82648 8.69922 7.95302C8.69922 8.07956 8.8018 8.18215 8.92834 8.18215Z" fill="#223A7A"/>
   <path d="M9.7135 8.18215C9.84004 8.18215 9.94263 8.07956 9.94263 7.95302C9.94263 7.82648 9.84004 7.7239 9.7135 7.7239C9.58696 7.7239 9.48438 7.82648 9.48438 7.95302C9.48438 8.07956 9.58696 8.18215 9.7135 8.18215Z" fill="#223A7A"/>
   <path d="M27.442 1.66882H19.7954C19.3043 1.66882 18.9062 2.06688 18.9062 2.55796V6.18499C18.9062 6.67607 19.3043 7.07414 19.7954 7.07414H20.4807C20.4999 7.40312 20.4527 7.89215 20.1784 8.51729C21.0621 8.10965 21.5703 7.49819 21.8363 7.07414H27.442C27.9331 7.07414 28.3312 6.67607 28.3312 6.18499V2.55796C28.3312 2.06688 27.9331 1.66882 27.442 1.66882Z" fill="#3CB27F"/>
   <path d="M24.1805 3.39786H20.388C20.284 3.39786 20.1992 3.31305 20.1992 3.20909C20.1992 3.10513 20.284 3.02032 20.388 3.02032H24.1805C24.2845 3.02032 24.3693 3.10513 24.3693 3.20909C24.3693 3.31305 24.2845 3.39786 24.1805 3.39786Z" fill="white"/>
   <path d="M26.9 4.49699H20.3148C20.2512 4.49699 20.1992 4.44501 20.1992 4.3814C20.1992 4.31779 20.2512 4.26581 20.3148 4.26581H26.9C26.9636 4.26581 27.0155 4.31779 27.0155 4.3814C27.0155 4.44501 26.9636 4.49699 26.9 4.49699Z" fill="#D2E6FF"/>
   <path d="M26.9 5.13854H20.3148C20.2512 5.13854 20.1992 5.08656 20.1992 5.02295C20.1992 4.95934 20.2512 4.90736 20.3148 4.90736H26.9C26.9636 4.90736 27.0155 4.95934 27.0155 5.02295C27.0155 5.08656 26.9636 5.13854 26.9 5.13854Z" fill="#D2E6FF"/>
   <path d="M25.463 5.82249H20.3148C20.2512 5.82249 20.1992 5.77051 20.1992 5.70691C20.1992 5.6433 20.2512 5.59132 20.3148 5.59132H25.463C25.5266 5.59132 25.5785 5.6433 25.5785 5.70691C25.5785 5.77051 25.5266 5.82249 25.463 5.82249Z" fill="#D2E6FF"/>
   <path d="M26.8494 3.39786H25.0403C24.9364 3.39786 24.8516 3.31305 24.8516 3.20909C24.8516 3.10513 24.9364 3.02032 25.0403 3.02032H26.8494C26.9534 3.02032 27.0382 3.10513 27.0382 3.20909C27.0382 3.31305 26.9534 3.39786 26.8494 3.39786Z" fill="white"/>
   <path d="M22.2884 11.7394H20.2344C20.1592 11.7394 20.0977 11.6779 20.0977 11.6026V10.1991C20.0977 10.1239 20.1592 10.0623 20.2344 10.0623H22.2884C22.3636 10.0623 22.4252 10.1239 22.4252 10.1991V11.6026C22.4252 11.6785 22.3643 11.7394 22.2884 11.7394Z" fill="white"/>
   <path d="M21.2751 11.1519C21.2635 11.1519 21.2518 11.1478 21.2423 11.1403L20.124 10.2169C20.1021 10.1991 20.0994 10.1663 20.1171 10.1444C20.1356 10.1225 20.1678 10.1198 20.1896 10.1376L21.2744 11.0336L22.3311 10.1143C22.3523 10.0959 22.3851 10.0979 22.4036 10.1191C22.4221 10.1403 22.42 10.1731 22.3988 10.1916L21.3093 11.1396C21.2997 11.1478 21.2874 11.1519 21.2751 11.1519Z" fill="#6F7FA9"/>
   <path d="M20.157 11.7011C20.144 11.7011 20.1316 11.6963 20.1214 11.6867C20.1009 11.6669 20.1002 11.6348 20.1193 11.6142L20.9011 10.7921C20.9203 10.7716 20.9531 10.7709 20.9736 10.7901C20.9941 10.8099 20.9948 10.8421 20.9757 10.8626L20.1939 11.6847C20.1843 11.6963 20.1706 11.7011 20.157 11.7011Z" fill="#6F7FA9"/>
   <path d="M22.3653 11.671C22.3523 11.671 22.3393 11.6662 22.3291 11.656L21.55 10.8749C21.5302 10.8551 21.5302 10.8222 21.55 10.8024C21.5699 10.7826 21.6027 10.7826 21.6225 10.8024L22.4016 11.5835C22.4214 11.6033 22.4214 11.6361 22.4016 11.656C22.3913 11.6662 22.3783 11.671 22.3653 11.671Z" fill="#6F7FA9"/>
   <path d="M22.5298 10.6971C22.9086 10.6971 23.2158 10.3899 23.2158 10.011C23.2158 9.63217 22.9086 9.32504 22.5298 9.32504C22.1509 9.32504 21.8438 9.63217 21.8438 10.011C21.8438 10.3899 22.1509 10.6971 22.5298 10.6971Z" fill="#FF5F42"/>
   <path d="M22.3405 10.0124L22.3377 10.009C22.3555 10.0158 22.3726 10.0254 22.3877 10.0391C22.4027 10.0528 22.4157 10.0692 22.4253 10.0883C22.4348 10.1075 22.4396 10.1294 22.4396 10.1533C22.4396 10.182 22.4321 10.208 22.4171 10.2313C22.402 10.2545 22.3815 10.2737 22.3555 10.2874C22.3295 10.301 22.3001 10.3086 22.268 10.3086C22.2358 10.3086 22.2064 10.3017 22.1811 10.2874C22.1558 10.273 22.1353 10.2545 22.1202 10.2313C22.1052 10.208 22.0977 10.182 22.0977 10.1533C22.0977 10.1294 22.1024 10.1075 22.1113 10.089C22.1209 10.0699 22.1332 10.0541 22.1483 10.0405C22.1633 10.0268 22.1797 10.0165 22.1975 10.0097L22.1961 10.0131C22.1811 10.0063 22.1674 9.996 22.1544 9.983C22.1414 9.97001 22.1312 9.95427 22.123 9.93649C22.1148 9.91871 22.1107 9.89956 22.1107 9.87835C22.1107 9.84963 22.1175 9.82364 22.1319 9.80038C22.1462 9.77713 22.1647 9.75935 22.1886 9.74567C22.2126 9.73199 22.2392 9.72583 22.268 9.72583C22.2967 9.72583 22.3234 9.73267 22.3473 9.74567C22.3712 9.75935 22.3897 9.77713 22.4041 9.80038C22.4184 9.82364 22.4253 9.84963 22.4253 9.87835C22.4253 9.89887 22.4212 9.91802 22.4136 9.93581C22.4054 9.95359 22.3952 9.96864 22.3822 9.98163C22.3692 9.99531 22.3555 10.0056 22.3405 10.0124ZM22.2686 10.2757C22.3097 10.2757 22.3425 10.2641 22.3678 10.2415C22.3931 10.2183 22.4054 10.1896 22.4054 10.154C22.4054 10.1301 22.3993 10.1082 22.3863 10.0897C22.374 10.0705 22.3569 10.0562 22.3364 10.0452C22.3158 10.0343 22.2926 10.0295 22.268 10.0295C22.244 10.0295 22.2215 10.035 22.2009 10.0452C22.1804 10.0562 22.1633 10.0705 22.151 10.0897C22.1387 10.1088 22.1319 10.1301 22.1319 10.154C22.1319 10.1896 22.1442 10.219 22.1695 10.2415C22.1948 10.2641 22.2276 10.2757 22.2686 10.2757ZM22.1455 9.87835C22.1455 9.90229 22.151 9.9235 22.1626 9.94128C22.1743 9.95906 22.1893 9.97342 22.2085 9.98368C22.2276 9.99394 22.2474 9.99873 22.2686 9.99873C22.2898 9.99873 22.3097 9.99394 22.3288 9.98368C22.3473 9.97342 22.3623 9.95975 22.374 9.94128C22.3856 9.9235 22.3911 9.90229 22.3911 9.87835C22.3911 9.84279 22.3794 9.81406 22.3569 9.79149C22.3343 9.76961 22.3049 9.75798 22.2686 9.75798C22.2317 9.75798 22.2023 9.76892 22.1797 9.79149C22.1565 9.81406 22.1455 9.84279 22.1455 9.87835Z" fill="white"/>
   <path d="M22.6798 10.2997C22.6565 10.2997 22.6333 10.2956 22.6107 10.288C22.5881 10.2805 22.5676 10.2689 22.5491 10.2538C22.5471 10.2525 22.545 10.2504 22.5443 10.2484C22.543 10.2463 22.543 10.2443 22.543 10.2415C22.543 10.2374 22.5443 10.2333 22.5478 10.2292C22.5512 10.2251 22.5546 10.2224 22.5594 10.2224C22.5635 10.2224 22.5676 10.2238 22.571 10.2272C22.5867 10.2402 22.6045 10.2504 22.623 10.2566C22.6421 10.2634 22.6606 10.2662 22.6798 10.2662C22.714 10.2662 22.7441 10.2593 22.77 10.2463C22.796 10.2326 22.8159 10.2142 22.8295 10.1896C22.8432 10.1649 22.8507 10.1362 22.8507 10.1041C22.8507 10.074 22.8446 10.0473 22.8316 10.0247C22.8186 10.0022 22.8001 9.98437 22.7755 9.97137C22.7509 9.95838 22.7222 9.95222 22.688 9.95222C22.6674 9.95222 22.6483 9.95564 22.6305 9.9618C22.6127 9.96795 22.5984 9.97411 22.5861 9.98095C22.5737 9.9871 22.5649 9.99052 22.5587 9.99052C22.556 9.99052 22.5532 9.98984 22.5512 9.98779C22.5484 9.98642 22.5471 9.98368 22.5457 9.98095C22.5443 9.97821 22.5443 9.97479 22.545 9.97069L22.5833 9.74498C22.584 9.74225 22.5854 9.73951 22.5888 9.73609C22.5915 9.73267 22.5963 9.7313 22.6018 9.7313H22.8521C22.8562 9.7313 22.8603 9.73267 22.8637 9.73609C22.8672 9.73951 22.8685 9.74362 22.8685 9.7484C22.8685 9.75319 22.8672 9.7573 22.8637 9.76071C22.8603 9.76413 22.8569 9.7655 22.8521 9.7655H22.6086L22.6162 9.75798L22.5785 9.96248L22.5621 9.95838C22.571 9.95291 22.582 9.94744 22.5963 9.94128C22.6107 9.93512 22.6264 9.93034 22.6442 9.92623C22.662 9.92213 22.6811 9.92008 22.701 9.92008C22.7358 9.92008 22.7673 9.9276 22.7947 9.94333C22.822 9.95838 22.8439 9.97958 22.8596 10.0069C22.8761 10.0343 22.8836 10.0658 22.8836 10.102C22.8836 10.1417 22.8754 10.1759 22.8583 10.2053C22.8412 10.2347 22.8179 10.258 22.7878 10.2744C22.757 10.2915 22.7215 10.2997 22.6798 10.2997Z" fill="white"/>
   <path d="M29.4236 9.75798H25.4142C25.2631 9.75798 25.1406 9.63556 25.1406 9.4844V8.85721C25.1406 8.70606 25.2631 8.58363 25.4142 8.58363H29.4236C29.5747 8.58363 29.6972 8.70606 29.6972 8.85721V9.4844C29.6972 9.63556 29.5747 9.75798 29.4236 9.75798Z" fill="#193C3F"/>
   <path d="M25.7019 9.47893C25.6841 9.47893 25.6698 9.47277 25.6588 9.45978C25.6479 9.44678 25.6431 9.43105 25.6445 9.4119L25.6616 9.26006C25.6629 9.25596 25.6622 9.25391 25.6595 9.25254C25.6568 9.25117 25.654 9.25186 25.6499 9.25459L25.5248 9.34487C25.509 9.3565 25.4933 9.3606 25.4769 9.35718C25.4605 9.35376 25.4468 9.34419 25.4365 9.32709C25.4249 9.30657 25.4228 9.28879 25.4297 9.27306C25.4365 9.25733 25.4488 9.24707 25.4653 9.24023L25.6055 9.17662C25.6096 9.17525 25.6109 9.1732 25.6109 9.17115C25.6109 9.16841 25.6089 9.16636 25.6055 9.16568L25.4653 9.10207C25.4475 9.09455 25.4358 9.08223 25.4304 9.06582C25.4256 9.0494 25.427 9.0323 25.4358 9.01589C25.4461 8.99947 25.4598 8.98922 25.4762 8.9858C25.4926 8.98238 25.509 8.9858 25.5241 8.99606L25.6492 9.08839C25.6533 9.09113 25.6561 9.09181 25.6588 9.09044C25.6616 9.08907 25.6622 9.08634 25.6609 9.08292L25.6438 8.93108C25.6424 8.91193 25.6479 8.89551 25.6595 8.8832C25.6711 8.87021 25.6862 8.86405 25.706 8.86405C25.7238 8.86405 25.7388 8.87021 25.7505 8.8832C25.7621 8.8962 25.7662 8.91193 25.7641 8.93108L25.747 9.08292C25.7457 9.08702 25.7464 9.08907 25.7491 9.09044C25.7518 9.09181 25.7546 9.09113 25.7587 9.08839L25.8838 8.99811C25.8989 8.98648 25.9153 8.98238 25.9331 8.9858C25.9502 8.98922 25.9639 8.99879 25.9728 9.01589C25.9844 9.03641 25.9864 9.05419 25.9796 9.06992C25.9728 9.08497 25.9604 9.09591 25.944 9.10275L25.8038 9.16636C25.7997 9.16773 25.7983 9.16978 25.7983 9.17183C25.7983 9.17457 25.8004 9.17662 25.8038 9.1773L25.944 9.24091C25.9618 9.24844 25.9741 9.26075 25.9796 9.27716C25.9851 9.29358 25.983 9.31068 25.9728 9.32709C25.9639 9.34351 25.9509 9.35376 25.9331 9.35718C25.916 9.3606 25.8996 9.35719 25.8838 9.34693L25.7587 9.25459C25.7546 9.25186 25.7518 9.25117 25.7491 9.25254C25.7464 9.25391 25.7457 9.25664 25.747 9.26006L25.7641 9.4119C25.7669 9.43105 25.7621 9.44747 25.7498 9.45978C25.7368 9.47277 25.7211 9.47893 25.7019 9.47893Z" fill="white"/>
   <path d="M26.5339 9.47893C26.5162 9.47893 26.5018 9.47277 26.4908 9.45978C26.4799 9.44678 26.4751 9.43105 26.4765 9.4119L26.4936 9.26006C26.495 9.25596 26.4943 9.25391 26.4915 9.25254C26.4888 9.25117 26.4861 9.25186 26.482 9.25459L26.3568 9.34487C26.3411 9.3565 26.3253 9.3606 26.3089 9.35718C26.2925 9.35376 26.2788 9.34419 26.2686 9.32709C26.2569 9.30657 26.2549 9.28879 26.2617 9.27306C26.2686 9.25733 26.2809 9.24707 26.2973 9.24023L26.4375 9.17662C26.4416 9.17525 26.443 9.1732 26.443 9.17115C26.443 9.16841 26.4409 9.16636 26.4375 9.16568L26.2973 9.10207C26.2795 9.09455 26.2679 9.08223 26.2624 9.06582C26.2576 9.0494 26.259 9.0323 26.2679 9.01589C26.2781 8.99947 26.2918 8.98922 26.3082 8.9858C26.3246 8.98238 26.3411 8.9858 26.3561 8.99606L26.4813 9.08839C26.4854 9.09113 26.4881 9.09181 26.4908 9.09044C26.4936 9.08907 26.4943 9.08634 26.4929 9.08292L26.4758 8.93108C26.4744 8.91193 26.4799 8.89551 26.4915 8.8832C26.5032 8.87021 26.5182 8.86405 26.538 8.86405C26.5558 8.86405 26.5709 8.87021 26.5825 8.8832C26.5941 8.8962 26.5982 8.91193 26.5962 8.93108L26.5791 9.08292C26.5777 9.08702 26.5784 9.08907 26.5811 9.09044C26.5839 9.09181 26.5866 9.09113 26.5907 9.08839L26.7159 8.99811C26.7309 8.98648 26.7473 8.98238 26.7651 8.9858C26.7822 8.98922 26.7952 8.99879 26.8048 9.01589C26.8164 9.03641 26.8185 9.05419 26.8116 9.06992C26.8048 9.08497 26.7925 9.09591 26.7761 9.10275L26.6358 9.16636C26.6317 9.16773 26.6304 9.16978 26.6304 9.17183C26.6304 9.17457 26.6324 9.17662 26.6358 9.1773L26.7761 9.24091C26.7938 9.24844 26.8062 9.26075 26.8116 9.27716C26.8171 9.29358 26.815 9.31068 26.8048 9.32709C26.7959 9.34351 26.7829 9.35376 26.7651 9.35718C26.748 9.3606 26.7316 9.35719 26.7159 9.34693L26.5907 9.25459C26.5866 9.25186 26.5839 9.25117 26.5811 9.25254C26.5784 9.25391 26.5777 9.25664 26.5791 9.26006L26.5962 9.4119C26.5989 9.43105 26.5941 9.44747 26.5818 9.45978C26.5688 9.47277 26.5531 9.47893 26.5339 9.47893Z" fill="white"/>
   <path d="M27.3621 9.47893C27.3443 9.47893 27.3299 9.47277 27.319 9.45978C27.308 9.44678 27.3032 9.43105 27.3046 9.4119L27.3217 9.26006C27.3231 9.25596 27.3224 9.25391 27.3197 9.25254C27.3169 9.25117 27.3142 9.25186 27.3101 9.25459L27.1849 9.34487C27.1692 9.3565 27.1535 9.3606 27.137 9.35718C27.1206 9.35376 27.1069 9.34419 27.0967 9.32709C27.0851 9.30657 27.083 9.28879 27.0898 9.27306C27.0967 9.25733 27.109 9.24707 27.1254 9.24023L27.2656 9.17662C27.2697 9.17525 27.2711 9.1732 27.2711 9.17115C27.2711 9.16841 27.269 9.16636 27.2656 9.16568L27.1254 9.10207C27.1076 9.09455 27.096 9.08223 27.0905 9.06582C27.0857 9.0494 27.0871 9.0323 27.096 9.01589C27.1063 8.99947 27.1199 8.98922 27.1364 8.9858C27.1528 8.98238 27.1692 8.9858 27.1842 8.99606L27.3094 9.08839C27.3135 9.09113 27.3162 9.09181 27.319 9.09044C27.3217 9.08907 27.3224 9.08634 27.321 9.08292L27.3039 8.93108C27.3026 8.91193 27.308 8.89551 27.3197 8.8832C27.3313 8.87021 27.3463 8.86405 27.3662 8.86405C27.3839 8.86405 27.399 8.87021 27.4106 8.8832C27.4222 8.8962 27.4264 8.91193 27.4243 8.93108L27.4072 9.08292C27.4058 9.08702 27.4065 9.08907 27.4093 9.09044C27.412 9.09181 27.4147 9.09113 27.4188 9.08839L27.544 8.99811C27.559 8.98648 27.5755 8.98238 27.5932 8.9858C27.6103 8.98922 27.624 8.99879 27.6329 9.01589C27.6445 9.03641 27.6466 9.05419 27.6397 9.06992C27.6329 9.08497 27.6206 9.09591 27.6042 9.10275L27.464 9.16636C27.4599 9.16773 27.4585 9.16978 27.4585 9.17183C27.4585 9.17457 27.4606 9.17662 27.464 9.1773L27.6042 9.24091C27.622 9.24844 27.6343 9.26075 27.6397 9.27716C27.6452 9.29358 27.6432 9.31068 27.6329 9.32709C27.624 9.34351 27.611 9.35376 27.5932 9.35718C27.5761 9.3606 27.5597 9.35719 27.544 9.34693L27.4188 9.25459C27.4147 9.25186 27.412 9.25117 27.4093 9.25254C27.4065 9.25391 27.4058 9.25664 27.4072 9.26006L27.4243 9.4119C27.427 9.43105 27.4222 9.44747 27.4099 9.45978C27.3969 9.47277 27.3812 9.47893 27.3621 9.47893Z" fill="white"/>
   <path d="M28.1941 9.47893C28.1763 9.47893 28.1619 9.47277 28.151 9.45978C28.1401 9.44678 28.1353 9.43105 28.1366 9.4119L28.1537 9.26006C28.1551 9.25596 28.1544 9.25391 28.1517 9.25254C28.149 9.25117 28.1462 9.25186 28.1421 9.25459L28.0169 9.34487C28.0012 9.3565 27.9855 9.3606 27.9691 9.35718C27.9527 9.35376 27.939 9.34419 27.9287 9.32709C27.9171 9.30657 27.915 9.28879 27.9219 9.27306C27.9287 9.25733 27.941 9.24707 27.9574 9.24023L28.0977 9.17662C28.1018 9.17525 28.1031 9.1732 28.1031 9.17115C28.1031 9.16841 28.1011 9.16636 28.0977 9.16568L27.9574 9.10207C27.9397 9.09455 27.928 9.08223 27.9226 9.06582C27.9178 9.0494 27.9191 9.0323 27.928 9.01589C27.9383 8.99947 27.952 8.98922 27.9684 8.9858C27.9848 8.98238 28.0012 8.9858 28.0163 8.99606L28.1414 9.08839C28.1455 9.09113 28.1483 9.09181 28.151 9.09044C28.1537 9.08907 28.1544 9.08634 28.1531 9.08292L28.136 8.93108C28.1346 8.91193 28.1401 8.89551 28.1517 8.8832C28.1633 8.87021 28.1784 8.86405 28.1982 8.86405C28.216 8.86405 28.231 8.87021 28.2427 8.8832C28.2543 8.8962 28.2584 8.91193 28.2563 8.93108L28.2392 9.08292C28.2379 9.08702 28.2385 9.08907 28.2413 9.09044C28.244 9.09181 28.2468 9.09113 28.2509 9.08839L28.376 8.99811C28.3911 8.98648 28.4075 8.98238 28.4253 8.9858C28.4424 8.98922 28.456 8.99879 28.4649 9.01589C28.4766 9.03641 28.4786 9.05419 28.4718 9.06992C28.4649 9.08497 28.4526 9.09591 28.4362 9.10275L28.296 9.16636C28.2919 9.16773 28.2905 9.16978 28.2905 9.17183C28.2905 9.17457 28.2926 9.17662 28.296 9.1773L28.4362 9.24091C28.454 9.24844 28.4663 9.26075 28.4718 9.27716C28.4773 9.29358 28.4752 9.31068 28.4649 9.32709C28.456 9.34351 28.4431 9.35376 28.4253 9.35718C28.4082 9.3606 28.3918 9.35719 28.376 9.34693L28.2509 9.25459C28.2468 9.25186 28.244 9.25117 28.2413 9.25254C28.2385 9.25391 28.2379 9.25664 28.2392 9.26006L28.2563 9.4119C28.2591 9.43105 28.2543 9.44747 28.242 9.45978C28.229 9.47277 28.2132 9.47893 28.1941 9.47893Z" fill="white"/>
   <path d="M29.0183 9.47893C29.0005 9.47893 28.9862 9.47277 28.9752 9.45978C28.9643 9.44678 28.9595 9.43105 28.9609 9.4119L28.978 9.26006C28.9793 9.25596 28.9786 9.25391 28.9759 9.25254C28.9732 9.25117 28.9704 9.25186 28.9663 9.25459L28.8412 9.34487C28.8254 9.3565 28.8097 9.3606 28.7933 9.35718C28.7769 9.35376 28.7632 9.34419 28.7529 9.32709C28.7413 9.30657 28.7393 9.28879 28.7461 9.27306C28.7529 9.25733 28.7652 9.24707 28.7817 9.24023L28.9219 9.17662C28.926 9.17525 28.9273 9.1732 28.9273 9.17115C28.9273 9.16841 28.9253 9.16636 28.9219 9.16568L28.7817 9.10207C28.7639 9.09455 28.7523 9.08223 28.7468 9.06582C28.742 9.0494 28.7434 9.0323 28.7523 9.01589C28.7625 8.99947 28.7762 8.98922 28.7926 8.9858C28.809 8.98238 28.8254 8.9858 28.8405 8.99606L28.9656 9.08839C28.9697 9.09113 28.9725 9.09181 28.9752 9.09044C28.978 9.08907 28.9786 9.08634 28.9773 9.08292L28.9602 8.93108C28.9588 8.91193 28.9643 8.89551 28.9759 8.8832C28.9875 8.87021 29.0026 8.86405 29.0224 8.86405C29.0402 8.86405 29.0552 8.87021 29.0669 8.8832C29.0785 8.8962 29.0826 8.91193 29.0806 8.93108L29.0635 9.08292C29.0621 9.08702 29.0628 9.08907 29.0655 9.09044C29.0682 9.09181 29.071 9.09113 29.0751 9.08839L29.2002 8.99811C29.2153 8.98648 29.2317 8.98238 29.2495 8.9858C29.2666 8.98922 29.2803 8.99879 29.2892 9.01589C29.3008 9.03641 29.3028 9.05419 29.296 9.06992C29.2892 9.08497 29.2768 9.09591 29.2604 9.10275L29.1202 9.16636C29.1161 9.16773 29.1147 9.16978 29.1147 9.17183C29.1147 9.17457 29.1168 9.17662 29.1202 9.1773L29.2604 9.24091C29.2782 9.24844 29.2905 9.26075 29.296 9.27716C29.3015 9.29358 29.2994 9.31068 29.2892 9.32709C29.2803 9.34351 29.2673 9.35376 29.2495 9.35718C29.2324 9.3606 29.216 9.35719 29.2002 9.34693L29.0751 9.25459C29.071 9.25186 29.0682 9.25117 29.0655 9.25254C29.0628 9.25391 29.0621 9.25664 29.0635 9.26006L29.0806 9.4119C29.0833 9.43105 29.0785 9.44747 29.0662 9.45978C29.0532 9.47277 29.0375 9.47893 29.0183 9.47893Z" fill="#3CB27F"/>
</svg>
