<svg width="31" height="25" viewBox="0 0 31 25" fill="none" xmlns="http://www.w3.org/2000/svg">
   <path d="M28.4433 15.7962C28.2876 15.2234 28.045 14.6108 27.7269 13.9753C27.7276 13.9739 27.7282 13.9726 27.7289 13.9705C27.8522 13.7172 27.9587 13.4435 28.0207 13.1436C28.0827 12.8451 28.0962 12.5149 28.0254 12.1887C27.9917 12.0256 27.9338 11.8672 27.8623 11.717C27.8462 11.6779 27.8239 11.6435 27.8037 11.6078L27.741 11.5006L27.7255 11.4744L27.7107 11.4521L27.6804 11.4083L27.6197 11.32C27.4546 11.0889 27.2787 10.8665 27.0887 10.6603C26.3319 9.82999 25.4396 9.14664 24.4941 8.52866C23.7616 8.0522 22.9906 7.62157 22.1907 7.22867C18.3594 3.97837 13.5012 1.80566 9.5884 3.51673C8.6092 3.94467 7.79039 4.61792 7.11175 5.46234C6.37988 5.76829 5.69451 6.1659 5.09337 6.65517C4.67285 6.9955 4.29411 7.38906 3.98006 7.81902C3.66736 8.25033 3.41801 8.71668 3.23066 9.19449C3.04264 9.67297 2.91594 10.1622 2.8371 10.6468C2.75757 11.132 2.7259 11.6125 2.72657 12.0816C2.72792 12.5513 2.76162 13.0095 2.81823 13.4543C2.87416 13.8998 2.95503 14.3318 3.05207 14.7496C3.14912 15.1674 3.25964 15.5724 3.38297 15.9626C3.50697 16.3528 3.64175 16.7296 3.7826 17.0935C4.02656 17.7142 4.29141 18.2951 4.56704 18.8376C4.92489 21.3257 5.67227 23.1796 6.57868 23.458C6.87993 23.5503 7.38671 23.5981 8.04782 23.6028C8.53237 24.0645 9.40038 24.7067 10.8446 24.487C11.0609 24.4648 11.3197 24.423 11.6142 24.3522C11.941 24.2741 12.311 24.1615 12.7194 24.0166C13.1278 23.8724 13.5739 23.6931 14.0558 23.4849C14.5356 23.2787 15.0498 23.0428 15.597 22.7813C17.7603 22.3837 20.0166 21.8466 22.0269 21.1815C26.0252 19.8606 29.0518 18.0349 28.4433 15.7962ZM4.36621 16.6709C4.26378 16.3731 4.16539 16.0678 4.07441 15.7544C3.96658 15.377 3.87021 14.9888 3.78799 14.5899C3.7051 14.1909 3.63838 13.7818 3.59525 13.3633C3.55145 12.9455 3.52853 12.5189 3.53595 12.0876C3.55077 11.227 3.68758 10.3408 4.02723 9.5146C4.19639 9.10216 4.41608 8.7059 4.68767 8.34198C4.96128 7.97807 5.28611 7.6492 5.65609 7.35739C5.79896 7.24417 5.94722 7.13635 6.1002 7.03391C4.67891 9.77743 4.2193 13.4752 4.36621 16.6709ZM12.5806 23.6642C12.5469 23.679 12.5139 23.6925 12.4809 23.7066C12.0138 23.9 10.013 24.6501 8.8417 23.8219C8.75746 23.7538 8.67052 23.679 8.58089 23.5988C9.77912 23.5718 11.3547 23.4323 13.0968 23.1877C13.3374 23.154 13.5807 23.1183 13.8273 23.0806C13.3765 23.3036 12.96 23.4997 12.5806 23.6642ZM27.1399 12.9138C26.5832 11.9933 25.8905 11.0457 25.0952 10.1178C25.1539 10.1629 25.2132 10.2074 25.2705 10.2525C25.4726 10.4163 25.6735 10.5814 25.8608 10.7553C26.0509 10.9271 26.2301 11.1057 26.3999 11.2884C26.5711 11.4703 26.7241 11.6617 26.8663 11.8551L26.9182 11.9286L26.9438 11.965L26.9566 11.9832C26.9606 11.9892 26.9627 11.9939 26.966 11.9993L27.0024 12.0613C27.0146 12.0822 27.0294 12.1018 27.0375 12.124C27.0779 12.2089 27.1123 12.2952 27.1311 12.3862C27.1682 12.5519 27.1696 12.7299 27.1399 12.9138Z" fill="#E1F5ED"/>
   <path d="M7.46073 2.94121C7.71816 3.38667 7.31584 4.10035 6.56307 4.53503C5.8103 4.9697 4.99149 4.96094 4.73406 4.51548C4.47662 4.07002 4.87895 3.35634 5.63172 2.92167C6.38448 2.48699 7.20329 2.49575 7.46073 2.94121Z" fill="#D2F5FC"/>
   <path d="M14.1715 1.98492C14.1284 2.27673 13.693 2.4533 13.2004 2.38051C12.7071 2.30706 12.3432 2.01121 12.3863 1.7194C12.4294 1.42759 12.8648 1.25103 13.3574 1.32381C13.8507 1.39727 14.2153 1.69312 14.1715 1.98492Z" fill="#D2F5FC"/>
   <path d="M18.1161 23.8347C18.2367 24.2249 17.7993 24.706 17.1396 24.9096C16.4798 25.1131 15.8477 24.9615 15.727 24.5713C15.6064 24.1811 16.0438 23.6999 16.7035 23.4964C17.3633 23.2935 17.9954 23.4445 18.1161 23.8347Z" fill="#D2F5FC"/>
   <path d="M20.4262 22.8602C20.4984 23.0934 20.2369 23.3804 19.8433 23.5018C19.4497 23.6231 19.0717 23.5328 19.0002 23.2996C18.9281 23.0664 19.1896 22.7793 19.5832 22.658C19.9767 22.5367 20.3541 22.627 20.4262 22.8602Z" fill="#D2F5FC"/>
   <path d="M26.3762 2.80442H25.8593C25.8222 2.68716 25.7757 2.57462 25.7191 2.46679L26.085 2.10086C26.176 2.00988 26.176 1.86229 26.085 1.77198L25.521 1.20791C25.43 1.11694 25.2831 1.11694 25.1921 1.20791L24.8262 1.57385C24.719 1.51792 24.6058 1.47074 24.4885 1.43368V0.916782C24.4885 0.788064 24.3848 0.68428 24.256 0.68428H23.4581C23.3294 0.68428 23.2256 0.788064 23.2256 0.916782V1.43368C23.1084 1.47074 22.9951 1.51792 22.888 1.57385L22.522 1.20791C22.4311 1.11694 22.2841 1.11694 22.1932 1.20791L21.6291 1.77198C21.5381 1.86296 21.5381 2.00988 21.6291 2.10086L21.995 2.46679C21.9391 2.57395 21.8919 2.68649 21.8549 2.80442H21.338C21.2093 2.80442 21.1055 2.90888 21.1055 3.03693V3.83484C21.1055 3.96356 21.2093 4.06735 21.338 4.06735H21.8549C21.8919 4.18461 21.9391 4.29783 21.995 4.40498L21.6291 4.77092C21.5381 4.86189 21.5381 5.00881 21.6291 5.09979L22.1932 5.66386C22.2841 5.75483 22.4311 5.75483 22.522 5.66386L22.888 5.29792C22.9951 5.35385 23.1084 5.40103 23.2256 5.43809V5.95499C23.2256 6.08371 23.3294 6.18749 23.4581 6.18749H24.256C24.3848 6.18749 24.4885 6.08371 24.4885 5.95499V5.43809C24.6058 5.40103 24.719 5.35385 24.8262 5.29792L25.1921 5.66386C25.2831 5.75483 25.43 5.75483 25.521 5.66386L26.085 5.09979C26.176 5.00881 26.176 4.86122 26.085 4.77092L25.7191 4.40498C25.775 4.29783 25.8222 4.18461 25.8593 4.06735H26.3762C26.5049 4.06735 26.6087 3.96356 26.6087 3.83484V3.03693C26.6087 2.90821 26.5049 2.80442 26.3762 2.80442ZM23.8571 4.47574C23.2829 4.47574 22.8172 4.01006 22.8172 3.43589C22.8172 2.86171 23.2829 2.39603 23.8571 2.39603C24.4313 2.39603 24.8969 2.86171 24.8969 3.43589C24.8976 4.01006 24.4319 4.47574 23.8571 4.47574Z" fill="#348B65"/>
   <path d="M23.8508 5.2548C22.8474 5.2548 22.0312 4.43869 22.0312 3.43522C22.0312 2.43176 22.8474 1.61565 23.8508 1.61565C24.8543 1.61565 25.6704 2.43176 25.6704 3.43522C25.6704 4.43869 24.8543 5.2548 23.8508 5.2548ZM23.8508 1.79491C22.9464 1.79491 22.2098 2.53083 22.2098 3.4359C22.2098 4.34029 22.9458 5.07689 23.8508 5.07689C24.7559 5.07689 25.4918 4.34097 25.4918 3.4359C25.4918 2.53083 24.7559 1.79491 23.8508 1.79491Z" fill="white"/>
   <path d="M20.0883 3.07531H19.7257C19.7001 2.9931 19.6671 2.91425 19.628 2.83877L19.8841 2.58268C19.9474 2.51866 19.9474 2.41555 19.8841 2.3522L19.4885 1.95728C19.4251 1.89326 19.322 1.89326 19.258 1.95728L19.0019 2.21337C18.9264 2.17429 18.8476 2.14126 18.7654 2.11498V1.75241C18.7654 1.66211 18.6926 1.58932 18.6023 1.58932H18.0436C17.9533 1.58932 17.8805 1.66211 17.8805 1.75241V2.11498C17.7983 2.14059 17.7195 2.17361 17.644 2.21337L17.3879 1.95728C17.3245 1.89326 17.2214 1.89326 17.1574 1.95728L16.7618 2.3522C16.6985 2.41555 16.6985 2.51866 16.7618 2.58268L17.0179 2.83877C16.9788 2.91425 16.9458 2.9931 16.9202 3.07531H16.5576C16.4673 3.07531 16.3945 3.1481 16.3945 3.2384V3.79708C16.3945 3.88738 16.4673 3.96017 16.5576 3.96017H16.9202C16.9458 4.04238 16.9788 4.12123 17.0179 4.19671L16.7618 4.4528C16.6985 4.51615 16.6985 4.61926 16.7618 4.68328L17.1574 5.0782C17.2208 5.14154 17.3239 5.14154 17.3879 5.0782L17.644 4.82211C17.7195 4.86119 17.7983 4.89422 17.8805 4.91983V5.28172C17.8805 5.37202 17.9533 5.44481 18.0436 5.44481H18.6023C18.6926 5.44481 18.7654 5.37202 18.7654 5.28172V4.91983C18.8476 4.89422 18.9264 4.86119 19.0019 4.82211L19.258 5.0782C19.3214 5.14154 19.4245 5.14154 19.4885 5.0782L19.8841 4.68328C19.9474 4.61926 19.9474 4.51615 19.8841 4.4528L19.628 4.19671C19.6671 4.12123 19.7001 4.04238 19.7257 3.96017H20.0883C20.1786 3.96017 20.2514 3.88738 20.2514 3.79708V3.2384C20.2514 3.14877 20.1786 3.07531 20.0883 3.07531ZM18.324 4.24658C17.9216 4.24658 17.5955 3.92041 17.5955 3.51808C17.5955 3.11575 17.9216 2.78957 18.324 2.78957C18.7263 2.78957 19.0525 3.11575 19.0525 3.51808C19.0525 3.92041 18.7263 4.24658 18.324 4.24658Z" fill="#0052FF"/>
   <path d="M18.3252 4.79245C17.6223 4.79245 17.0508 4.22097 17.0508 3.51808C17.0508 2.81518 17.6223 2.2437 18.3252 2.2437C19.0281 2.2437 19.5995 2.81518 19.5995 3.51808C19.5995 4.22097 19.0281 4.79245 18.3252 4.79245ZM18.3252 2.36837C17.6917 2.36837 17.1761 2.88392 17.1761 3.5174C17.1761 4.15088 17.6917 4.66643 18.3252 4.66643C18.9586 4.66643 19.4742 4.15088 19.4742 3.5174C19.4742 2.88392 18.9586 2.36837 18.3252 2.36837Z" fill="white"/>
   <path d="M26.1792 21.4901H25.6724C25.636 21.3749 25.5902 21.265 25.5356 21.1599L25.8941 20.8014C25.9831 20.7124 25.9831 20.5682 25.8941 20.4793L25.3415 19.9266C25.2525 19.8377 25.1083 19.8377 25.0194 19.9266L24.6608 20.2852C24.5557 20.2299 24.4452 20.1841 24.33 20.1477V19.6409C24.33 19.5149 24.2282 19.4131 24.1022 19.4131H23.3204C23.1944 19.4131 23.0926 19.5149 23.0926 19.6409V20.1477C22.9774 20.1841 22.8669 20.2299 22.7617 20.2852L22.4032 19.9266C22.3143 19.8377 22.17 19.8377 22.0811 19.9266L21.5285 20.4793C21.4395 20.5682 21.4395 20.7124 21.5285 20.8014L21.887 21.1599C21.8317 21.265 21.7859 21.3756 21.7502 21.4901H21.2434C21.1174 21.4901 21.0156 21.5926 21.0156 21.7179V22.4997C21.0156 22.6257 21.1174 22.7274 21.2434 22.7274H21.7502C21.7866 22.8427 21.8324 22.9532 21.887 23.0583L21.5285 23.4169C21.4395 23.5058 21.4395 23.65 21.5285 23.739L22.0811 24.2916C22.17 24.3806 22.3143 24.3806 22.4032 24.2916L22.7617 23.9331C22.8669 23.9877 22.9774 24.0342 23.0926 24.0699V24.5767C23.0926 24.7027 23.1944 24.8045 23.3204 24.8045H24.1022C24.2282 24.8045 24.33 24.7027 24.33 24.5767V24.0699C24.4452 24.0335 24.5557 23.9877 24.6608 23.9331L25.0194 24.2916C25.1083 24.3806 25.2525 24.3806 25.3415 24.2916L25.8941 23.739C25.9831 23.65 25.9831 23.5058 25.8941 23.4169L25.5356 23.0583C25.5902 22.9532 25.6367 22.8427 25.6724 22.7274H26.1792C26.3052 22.7274 26.407 22.6257 26.407 22.4997V21.7179C26.407 21.5926 26.3052 21.4901 26.1792 21.4901ZM23.7106 23.1278C23.1479 23.1278 22.6917 22.6715 22.6917 22.1088C22.6917 21.5461 23.1479 21.0898 23.7106 21.0898C24.2733 21.0898 24.7296 21.5461 24.7296 22.1088C24.7296 22.6715 24.2733 23.1278 23.7106 23.1278Z" fill="#348B65"/>
   <path d="M23.7161 23.8913C22.7329 23.8913 21.9336 23.0914 21.9336 22.1088C21.9336 21.1255 22.7335 20.3263 23.7161 20.3263C24.6987 20.3263 25.4986 21.1262 25.4986 22.1088C25.4986 23.092 24.6994 23.8913 23.7161 23.8913ZM23.7161 20.5015C22.8299 20.5015 22.1088 21.2226 22.1088 22.1088C22.1088 22.995 22.8299 23.7161 23.7161 23.7161C24.6023 23.7161 25.3234 22.995 25.3234 22.1088C25.3241 21.2226 24.603 20.5015 23.7161 20.5015Z" fill="white"/>
   <path d="M7.21241 4.93398H6.79593C6.76627 4.83963 6.72854 4.74865 6.68338 4.66239L6.97788 4.36789C7.05067 4.29443 7.05067 4.17582 6.97788 4.10304L6.52366 3.64882C6.45088 3.57536 6.33227 3.57536 6.25882 3.64882L5.96431 3.94332C5.87805 3.89817 5.78707 3.86043 5.69272 3.8301V3.41362C5.69272 3.30984 5.60916 3.22627 5.50538 3.22627H4.86313C4.75935 3.22627 4.67578 3.30984 4.67578 3.41362V3.8301C4.58143 3.85975 4.49046 3.89749 4.40419 3.94332L4.10969 3.64882C4.03691 3.57536 3.9183 3.57536 3.84484 3.64882L3.39062 4.10304C3.31784 4.17582 3.31784 4.29443 3.39062 4.36789L3.68512 4.66239C3.63997 4.74865 3.60223 4.83963 3.57258 4.93398H3.1561C3.05232 4.93398 2.96875 5.01822 2.96875 5.12133V5.76357C2.96875 5.86735 3.05232 5.95092 3.1561 5.95092H3.57258C3.60223 6.04527 3.63997 6.13625 3.68512 6.22251L3.39062 6.51701C3.31784 6.58979 3.31784 6.7084 3.39062 6.78186L3.84484 7.23608C3.91763 7.30886 4.03624 7.30886 4.10969 7.23608L4.40419 6.94158C4.49046 6.98673 4.58143 7.02447 4.67578 7.05412V7.4706C4.67578 7.57439 4.75935 7.65795 4.86313 7.65795H5.50538C5.60916 7.65795 5.69272 7.57439 5.69272 7.4706V7.05412C5.78707 7.02447 5.87805 6.98673 5.96431 6.94158L6.25882 7.23608C6.3316 7.30886 6.45021 7.30886 6.52366 7.23608L6.97788 6.78186C7.05067 6.7084 7.05067 6.58979 6.97788 6.51701L6.68338 6.22251C6.72854 6.13625 6.76627 6.04527 6.79593 5.95092H7.21241C7.31619 5.95092 7.39976 5.86735 7.39976 5.76357V5.12133C7.39976 5.01822 7.31619 4.93398 7.21241 4.93398ZM5.18392 6.27979C4.72161 6.27979 4.34624 5.90509 4.34624 5.44211C4.34624 4.97981 4.72094 4.60443 5.18392 4.60443C5.64622 4.60443 6.0216 4.97913 6.0216 5.44211C6.0216 5.90509 5.64622 6.27979 5.18392 6.27979Z" fill="#008489"/>
   <path d="M5.18775 6.90788C4.37973 6.90788 3.72266 6.25082 3.72266 5.44279C3.72266 4.63476 4.37973 3.97769 5.18775 3.97769C5.99578 3.97769 6.65285 4.63476 6.65285 5.44279C6.65285 6.25014 5.99578 6.90788 5.18775 6.90788ZM5.18775 4.12124C4.45925 4.12124 3.8662 4.71361 3.8662 5.44279C3.8662 6.17129 4.45857 6.76367 5.18775 6.76367C5.91626 6.76367 6.5093 6.17129 6.5093 5.44279C6.50863 4.71361 5.91626 4.12124 5.18775 4.12124Z" fill="white"/>
   <path d="M9.93741 5.82286C9.4313 5.82286 9.01953 5.4111 9.01953 4.90499V4.48244H9.32145V4.90499C9.32145 5.24464 9.59775 5.52095 9.93741 5.52095C10.2771 5.52095 10.5534 5.24464 10.5534 4.90499V3.57063C10.5534 3.06452 10.9651 2.65276 11.4712 2.65276H11.8082C12.3143 2.65276 12.7261 3.06452 12.7261 3.57063V6.97122H12.4242V3.57063C12.4242 3.23098 12.1479 2.95467 11.8082 2.95467H11.4712C11.1316 2.95467 10.8553 3.23098 10.8553 3.57063V4.90566C10.856 5.4111 10.4435 5.82286 9.93741 5.82286Z" fill="white"/>
   <path d="M10.6389 1.4714C10.6389 0.624284 9.92252 -0.0556989 9.0626 0.00360582C8.34218 0.0534757 7.75655 0.633718 7.69994 1.35346C7.67298 1.69851 7.76531 2.01997 7.93918 2.28279C8.2357 2.73028 8.3934 3.25458 8.3934 3.79102H9.93936C9.93936 3.25863 10.0896 2.73365 10.3875 2.29223C10.5466 2.05771 10.6389 1.77533 10.6389 1.4714Z" fill="#3CB27F"/>
   <path d="M9.3261 1.48689V1.86563H9.27286H9.06057H9.00734V1.48689H8.48438V2.00244H8.8712V3.98039H9.00734V2.00244H9.06057H9.27286H9.3261V3.98039H9.46223V2.00244H9.84906V1.48689H9.3261ZM8.8712 1.86631H8.62118V1.6237H8.8712V1.86631ZM9.71293 1.86631H9.4629V1.6237H9.71293V1.86631Z" fill="white"/>
   <path d="M9.53252 4.52626H8.80469V4.87468H9.53252V4.52626Z" fill="#004D47"/>
   <path d="M9.61971 4.68598H8.71599C8.53875 4.68598 8.39453 4.54243 8.39453 4.36452V3.79102H9.9405V4.36452C9.94117 4.54176 9.79763 4.68598 9.61971 4.68598Z" fill="#008489"/>
   <path d="M24.0644 9.06915L21.9921 9.44924L22.447 9.98298L21.0689 11.1556L19.4663 9.36635L16.7383 11.6691L17.1925 12.2069L19.3982 10.3456L21.0022 12.1368L22.9033 10.5194L23.3575 11.0532L24.0644 9.06915Z" fill="#3CB27F"/>
   <path d="M22.98 7.17004L21.3296 7.47263L21.6915 7.89787L20.5943 8.83192L19.3179 7.40659L17.1445 9.24032L17.5064 9.66893L19.2633 8.18631L20.5411 9.61299L22.0554 8.32514L22.4173 8.75038L22.98 7.17004Z" fill="#0052FF"/>
   <path d="M27.3775 10.2613C27.294 10.2613 27.2266 10.3287 27.2266 10.4122V10.5632C27.2266 10.6468 27.294 10.7142 27.3775 10.7142C27.4611 10.7142 27.5285 10.6468 27.5285 10.5632V10.4122C27.5285 10.3287 27.4611 10.2613 27.3775 10.2613Z" fill="white"/>
   <path d="M27.3775 13.9692C27.294 13.9692 27.2266 14.0366 27.2266 14.1201V14.4436C27.2266 14.5272 27.294 14.5946 27.3775 14.5946C27.4611 14.5946 27.5285 14.5272 27.5285 14.4436V14.1201C27.5285 14.0372 27.4611 13.9692 27.3775 13.9692Z" fill="white"/>
   <path d="M27.3775 11.382C27.294 11.382 27.2266 11.4494 27.2266 11.533V11.8565C27.2266 11.94 27.294 12.0074 27.3775 12.0074C27.4611 12.0074 27.5285 11.94 27.5285 11.8565V11.533C27.5285 11.4501 27.4611 11.382 27.3775 11.382Z" fill="white"/>
   <path d="M27.3775 12.6759C27.294 12.6759 27.2266 12.7433 27.2266 12.8269V13.1504C27.2266 13.2339 27.294 13.3013 27.3775 13.3013C27.4611 13.3013 27.5285 13.2339 27.5285 13.1504V12.8269C27.5285 12.7433 27.4611 12.6759 27.3775 12.6759Z" fill="white"/>
   <path d="M27.3761 15.2631C27.2926 15.2631 27.2252 15.3305 27.2252 15.4141C27.1416 15.4141 27.0742 15.4815 27.0742 15.565C27.0742 15.6486 27.1416 15.716 27.2252 15.716H27.5271V15.4141C27.5271 15.3305 27.4597 15.2631 27.3761 15.2631Z" fill="white"/>
   <path d="M23.2004 15.4141H22.9322C22.8486 15.4141 22.7812 15.4815 22.7812 15.565C22.7812 15.6486 22.8486 15.716 22.9322 15.716H23.2004C23.284 15.716 23.3514 15.6486 23.3514 15.565C23.3514 15.4815 23.284 15.4141 23.2004 15.4141Z" fill="white"/>
   <path d="M24.2707 15.4141H24.0025C23.919 15.4141 23.8516 15.4815 23.8516 15.565C23.8516 15.6486 23.919 15.716 24.0025 15.716H24.2707C24.3543 15.716 24.4217 15.6486 24.4217 15.565C24.421 15.4815 24.3536 15.4141 24.2707 15.4141Z" fill="white"/>
   <path d="M25.345 15.4141H25.0767C24.9932 15.4141 24.9258 15.4815 24.9258 15.565C24.9258 15.6486 24.9932 15.716 25.0767 15.716H25.345C25.4285 15.716 25.4959 15.6486 25.4959 15.565C25.4959 15.4815 25.4285 15.4141 25.345 15.4141Z" fill="white"/>
   <path d="M26.4192 15.4141H26.151C26.0674 15.4141 26 15.4815 26 15.565C26 15.6486 26.0674 15.716 26.151 15.716H26.4192C26.5027 15.716 26.5701 15.6486 26.5701 15.565C26.5701 15.4815 26.5027 15.4141 26.4192 15.4141Z" fill="white"/>
   <path d="M22.1261 15.4141H21.9752C21.8916 15.4141 21.8242 15.4815 21.8242 15.565C21.8242 15.6486 21.8916 15.716 21.9752 15.716H22.1261C22.2097 15.716 22.2771 15.6486 22.2771 15.565C22.2771 15.4815 22.209 15.4141 22.1261 15.4141Z" fill="white"/>
   <path d="M7.15629 11.1886L0.535156 13.1859L1.95963 17.9081L8.58076 15.9109L7.15629 11.1886Z" fill="#348B65"/>
   <path d="M6.98158 12.1349L1.19922 13.8792L2.27317 17.4394L8.05553 15.6952L6.98158 12.1349Z" fill="white"/>
   <path d="M5.67736 12.1732C5.70297 12.2568 5.65512 12.3457 5.57156 12.3707C5.48799 12.3963 5.39903 12.3484 5.3741 12.2649C5.34849 12.1813 5.39634 12.0923 5.4799 12.0674C5.56347 12.0418 5.65175 12.089 5.67736 12.1732Z" fill="white"/>
   <path d="M6.27892 11.9906C6.30453 12.0741 6.25668 12.1631 6.17312 12.188C6.08955 12.2136 6.0006 12.1658 5.97566 12.0822C5.95005 11.9987 5.9979 11.9097 6.08147 11.8848C6.16503 11.8598 6.25399 11.907 6.27892 11.9906Z" fill="white"/>
   <path d="M6.88439 11.8086C6.91 11.8922 6.86215 11.9811 6.77859 12.0061C6.69502 12.0317 6.60606 11.9838 6.58113 11.9003C6.55552 11.8167 6.60337 11.7278 6.68693 11.7028C6.7705 11.6772 6.85878 11.7251 6.88439 11.8086Z" fill="white"/>
   <path d="M3.28426 15.3634L2.60938 15.567L2.9828 16.8045L3.65769 16.6009L3.28426 15.3634Z" fill="#3CB27F"/>
   <path d="M4.27645 14.4709L3.60156 14.6746L4.13911 16.456L4.814 16.2523L4.27645 14.4709Z" fill="#3CB27F"/>
   <path d="M5.59676 14.6744L4.92188 14.878L5.29245 16.1064L5.96733 15.9029L5.59676 14.6744Z" fill="#3CB27F"/>
   <path d="M6.28426 12.7686L5.60938 12.9722L6.44978 15.7582L7.12466 15.5546L6.28426 12.7686Z" fill="#3CB27F"/>
   <path d="M1.93467 14.1013C1.95556 14.17 1.91647 14.2428 1.84773 14.2637C1.77899 14.2846 1.70621 14.2455 1.68532 14.1768C1.66443 14.108 1.70351 14.0352 1.77225 14.0144C1.84167 13.9935 1.91445 14.0326 1.93467 14.1013Z" fill="#EBEBEB"/>
   <path d="M3.47697 13.583L2.08203 14.0038L2.11142 14.1012L3.50636 13.6804L3.47697 13.583Z" fill="#EBEBEB"/>
   <path d="M2.04014 14.4564C2.06103 14.5252 2.02194 14.598 1.9532 14.6189C1.88446 14.6397 1.81168 14.6007 1.79079 14.5319C1.76989 14.4632 1.80898 14.3904 1.87772 14.3695C1.94713 14.3486 2.01992 14.3877 2.04014 14.4564Z" fill="#EBEBEB"/>
   <path d="M3.58244 13.9381L2.1875 14.3589L2.21689 14.4563L3.61183 14.0355L3.58244 13.9381Z" fill="#EBEBEB"/>
   <path d="M9.98035 9.13249C9.98035 9.12979 9.98237 9.1271 9.98237 9.12373V7.53531C9.98237 7.53261 9.98102 7.53059 9.98102 7.52789C9.98035 7.5225 9.97967 7.51778 9.97833 7.51307C9.97698 7.50767 9.97496 7.50296 9.97226 7.49891C9.97091 7.49689 9.97091 7.4942 9.96957 7.49217C9.96822 7.49015 9.9662 7.48948 9.96485 7.48746C9.96148 7.48341 9.95744 7.47937 9.95339 7.476C9.95002 7.4733 9.94598 7.47061 9.94194 7.46859C9.93722 7.46589 9.9325 7.46454 9.92778 7.4632C9.92306 7.46185 9.91835 7.4605 9.91363 7.4605C9.91093 7.4605 9.90891 7.45915 9.90622 7.45915H7.57985C7.57716 7.45915 7.57514 7.4605 7.57312 7.4605C7.56772 7.46117 7.56301 7.46185 7.55829 7.4632C7.55357 7.46454 7.54885 7.46657 7.54481 7.46859C7.54077 7.47061 7.53672 7.47331 7.53335 7.47667C7.52931 7.48004 7.52527 7.48341 7.5219 7.48746C7.52055 7.48948 7.51853 7.49015 7.51718 7.49217C7.51583 7.4942 7.51583 7.49689 7.51448 7.49891C7.51179 7.50363 7.50977 7.50835 7.50842 7.51307C7.50707 7.51778 7.50572 7.52317 7.50572 7.52789C7.50572 7.53059 7.50438 7.53261 7.50438 7.53531V8.096H6.83922C6.83855 8.096 6.83787 8.09668 6.83652 8.09668C6.83046 8.09668 6.82507 8.0987 6.81968 8.10005C6.81563 8.1014 6.81159 8.1014 6.80755 8.10342C6.8035 8.10544 6.80013 8.10813 6.79609 8.11083C6.79137 8.1142 6.78665 8.1169 6.78261 8.12094C6.78194 8.12161 6.78126 8.12161 6.78059 8.12229C6.77789 8.12498 6.77722 8.12835 6.7752 8.13172C6.77183 8.13644 6.76913 8.14116 6.76711 8.14587C6.76509 8.15127 6.76441 8.15666 6.76374 8.16205C6.76307 8.16542 6.76172 8.16879 6.76172 8.17283V9.76193C6.76172 9.80438 6.79609 9.83875 6.83855 9.83875H9.16491C9.20737 9.83875 9.24173 9.80438 9.24173 9.76193V9.45327C9.24241 9.44788 9.24241 9.44316 9.24173 9.43777V9.20055H9.90689C9.91835 9.20055 9.92913 9.19786 9.93857 9.19314C9.94126 9.19179 9.94328 9.18977 9.94598 9.18842C9.95272 9.18438 9.95946 9.17899 9.96485 9.17292C9.9662 9.17158 9.96754 9.17158 9.96822 9.17023C9.97024 9.16753 9.97024 9.16484 9.97226 9.16214C9.97496 9.15742 9.97765 9.15271 9.979 9.14799C9.979 9.1426 9.97967 9.13788 9.98035 9.13249ZM9.23971 8.53001V8.17216C9.23971 8.16811 9.23837 8.16542 9.23769 8.16137C9.23702 8.15598 9.23634 8.15059 9.23432 8.1452C9.2323 8.13981 9.22893 8.13577 9.22624 8.13105C9.22421 8.12835 9.22354 8.12431 9.22084 8.12161C9.22017 8.12094 9.2195 8.12094 9.21882 8.12026C9.21478 8.11622 9.21006 8.11285 9.20534 8.11016C9.20467 8.10948 9.20332 8.10881 9.20265 8.10813L9.82804 7.68087V8.97007L9.23971 8.53001ZM6.91335 8.34131L7.6149 8.95121L6.91335 9.31579V8.34131V8.34131ZM7.80023 8.90807C7.80023 8.90807 7.80023 8.9074 7.80023 8.90807L7.04207 8.24966H7.57648C7.57716 8.24966 7.57716 8.24966 7.57783 8.24966C7.57851 8.24966 7.57851 8.24966 7.57918 8.24966H8.50919C8.50986 8.24966 8.51053 8.24966 8.51121 8.24966C8.51188 8.24966 8.51256 8.24966 8.5139 8.24966H8.95599L8.19918 8.9074L7.9997 9.0806L7.80023 8.90807ZM8.94791 8.09533H8.53614L7.82786 7.61213H9.65619L8.94791 8.09533ZM9.08606 8.34131V9.31512L8.38451 8.95121L9.08606 8.34131ZM7.65533 7.68087L8.26253 8.09533H7.65533V7.68087ZM6.91335 9.68443V9.48899L7.74025 9.05903L7.94916 9.24032C7.96331 9.25312 7.98151 9.25919 7.9997 9.25919C8.0179 9.25919 8.03542 9.25312 8.05025 9.24032L8.25916 9.05903L9.08606 9.48764V9.68375H6.91335V9.68443ZM9.23971 8.72207L9.67304 9.04623H9.23971V8.72207Z" fill="white"/>
   <path d="M15.5834 12.9886C15.5834 12.9886 16.1919 16.0368 18.5459 16.927C18.5459 16.927 18.9381 16.6103 19.2097 16.6703C19.4813 16.7309 19.9793 17.3192 19.9793 17.3192H18.4401C18.4401 17.3192 15.9203 17.078 14.6224 14.6182L14.5469 13.6976L15.5834 12.9886Z" fill="#FFC7CA"/>
   <path d="M14.2529 10.3934C14.2529 10.3934 15.7821 12.3397 15.9633 12.8532C15.9633 12.8532 14.9976 13.6531 14.6957 13.9247C14.6957 13.9247 13.5507 11.6812 13.7448 11.0579C13.9261 10.477 14.2529 10.3934 14.2529 10.3934Z" fill="#348B65"/>
   <path d="M11.9391 9.88996C11.9391 9.88996 9.6255 10.2121 9.22317 11.7412C8.82084 13.2703 11.9546 17.8779 11.9546 17.8779H15.5809C15.5809 17.8779 14.6954 10.6751 14.2533 10.3934C13.8099 10.1117 13.2269 9.62848 11.9391 9.88996Z" fill="#3CB27F"/>
   <path d="M13.1868 9.0051L13.0998 10.419C12.773 10.6205 11.5977 10.2316 11.5977 10.2316L11.758 8.67892L13.1868 9.0051Z" fill="#FFC7CA"/>
   <path d="M14.4848 7.01299C14.4848 7.01299 14.4423 9.9634 12.8249 9.57859C10.9238 9.12572 11.7986 6.40984 11.7986 6.40984L14.4848 7.01299Z" fill="#FFC7CA"/>
   <path d="M11.7983 7.83787C11.7983 7.83787 11.6675 7.54606 11.4559 7.66669C11.245 7.78732 11.1944 8.61422 11.7578 8.67892L11.7983 7.83787Z" fill="#FFC7CA"/>
   <path d="M11.4546 7.66671C11.4546 7.66671 11.7666 7.61616 11.8717 7.90325L12.0375 6.83172C12.0375 6.83172 13.0976 7.13364 13.6765 6.83172C13.6765 6.83172 14.1159 7.41129 14.4502 7.46857C14.7837 7.52586 15.2784 6.15241 14.4502 5.88082C14.4502 5.88082 12.6043 3.61714 11.5516 5.88082C11.5516 5.88082 10.8609 5.92598 10.7706 6.75624C10.6803 7.58651 11.311 8.15799 11.311 8.15799C11.311 8.15799 11.2942 7.74758 11.4546 7.66671Z" fill="#2B2C84"/>
   <path d="M11.7891 15.4936C11.7891 15.4936 13.8411 17.5908 15.8636 17.5908C17.8853 17.5908 17.9763 17.5908 17.9763 17.5908H19.8774C19.8774 17.5908 18.942 16.3683 18.4892 16.5422C18.0363 16.7161 17.7344 16.9722 17.7344 16.9722C17.7344 16.9722 14.8473 16.4249 13.0466 14.2839C13.0466 14.2846 12.1732 14.2866 11.7891 15.4936Z" fill="#FFC7CA"/>
   <path d="M9.22656 11.7412C9.22656 11.7412 9.267 14.598 11.7214 15.8858C11.7214 15.8858 12.6972 14.4335 13.0443 14.2846C13.0443 14.2846 11.838 11.5438 11.0374 11.0168C10.6297 10.7485 9.78996 10.8355 9.22656 11.7412Z" fill="#348B65"/>
   <path d="M15.7395 17.5908C15.7395 17.5908 15.639 17.6966 15.6492 17.8772H22.1572C22.1572 17.8772 22.0871 17.6056 21.9961 17.5908H15.7395Z" fill="#2B2C84"/>
   <path d="M19.8672 17.8779L21.5628 12.6261H24.1378L22.4274 17.8779H19.8672Z" fill="#0052FF"/>
   <path d="M22.8105 15.0603C22.7599 15.2665 22.6144 15.4087 22.485 15.377C22.3556 15.3453 22.2909 15.1526 22.3414 14.9457C22.392 14.7395 22.5375 14.5973 22.6669 14.629C22.7963 14.6606 22.8603 14.854 22.8105 15.0603Z" fill="white"/>
   <path d="M25.1864 18.5417H6.07812C6.07812 18.1751 6.37532 17.8779 6.74193 17.8779H24.5219C24.8892 17.8779 25.1864 18.1751 25.1864 18.5417Z" fill="#009AFF"/>
   <path d="M11.7414 17.8779H8.67507C8.35833 17.8779 8.10156 17.6211 8.10156 17.3044C8.10156 16.9877 8.35833 16.7309 8.67507 16.7309H11.7414V17.8779Z" fill="#FF9A00"/>
   <path d="M11.7405 17.5571H8.62772C8.48822 17.5571 8.375 17.4439 8.375 17.3044C8.375 17.1649 8.48822 17.0517 8.62772 17.0517H11.7405V17.5571Z" fill="white"/>
   <path d="M11.7414 16.7309H8.67507C8.35833 16.7309 8.10156 16.4742 8.10156 16.1574C8.10156 15.8407 8.35833 15.5839 8.67507 15.5839H11.7414V16.7309Z" fill="#008489"/>
   <path d="M11.7405 16.4101H8.62772C8.48822 16.4101 8.375 16.2969 8.375 16.1574C8.375 16.0179 8.48822 15.9047 8.62772 15.9047H11.7405V16.4101Z" fill="white"/>
   <path d="M8.39644 11.3679L8.42946 11.4737L8.46248 11.3679C8.50494 11.2317 8.5939 11.1179 8.71049 11.0484C8.5939 10.9797 8.50494 10.8658 8.46248 10.729L8.42946 10.6232L8.39644 10.729C8.35398 10.8651 8.26503 10.979 8.14844 11.0484C8.2657 11.1179 8.35398 11.2317 8.39644 11.3679Z" fill="#348B65"/>
   <path d="M15.2542 9.97556L15.3169 10.1757L15.3796 9.97556C15.4604 9.71813 15.6276 9.50247 15.8486 9.37173C15.6276 9.24099 15.4604 9.02601 15.3796 8.7679L15.3169 8.56775L15.2542 8.7679C15.1733 9.02534 15.0062 9.24099 14.7852 9.37173C15.0062 9.50247 15.1733 9.71813 15.2542 9.97556Z" fill="#348B65"/>
   <path d="M19.6722 14.2489L19.7348 14.449L19.7975 14.2489C19.8784 13.9914 20.0455 13.7758 20.2666 13.645C20.0455 13.5143 19.8784 13.2993 19.7975 13.0412L19.7348 12.8411L19.6722 13.0412C19.5913 13.2987 19.4242 13.5143 19.2031 13.645C19.4242 13.7758 19.5913 13.9908 19.6722 14.2489Z" fill="#348B65"/>
   <path d="M18.6354 15.5495L18.6765 15.6809L18.7176 15.5495C18.7702 15.3811 18.8801 15.2395 19.025 15.1539C18.8801 15.0684 18.7702 14.9275 18.7176 14.7584L18.6765 14.6269L18.6354 14.7584C18.5829 14.9268 18.473 15.0684 18.3281 15.1539C18.473 15.2395 18.5829 15.3804 18.6354 15.5495Z" fill="#348B65"/>
   <path d="M16.0495 7.46522L16.0906 7.59664L16.1317 7.46522C16.1843 7.29674 16.2941 7.15522 16.439 7.06963C16.2941 6.98405 16.1843 6.8432 16.1317 6.67404L16.0906 6.5433L16.0495 6.67404C15.9969 6.84252 15.8871 6.98405 15.7422 7.06963C15.8871 7.15522 15.9969 7.29607 16.0495 7.46522Z" fill="#348B65"/>
   <path d="M5.61625 10.6704L5.67421 10.855L5.73216 10.6704C5.80629 10.4325 5.96129 10.2337 6.16482 10.1137C5.96062 9.99308 5.80629 9.79428 5.73216 9.55706L5.67421 9.37241L5.61625 9.55706C5.54212 9.79495 5.38712 9.99376 5.18359 10.1137C5.38779 10.2337 5.54212 10.4325 5.61625 10.6704Z" fill="#348B65"/>
   <path d="M29.5097 6.63496H25.043V12.1092H29.5097V6.63496Z" fill="#348B65"/>
   <path d="M30.0145 7.22936V7.62562H29.5117V6.63564C29.7975 6.68214 30.0145 6.93014 30.0145 7.22936Z" fill="#3CB27F"/>
   <path d="M26.2538 8.21866H25.5469V8.9256H26.2538V8.21866Z" fill="#80CAAA"/>
   <path d="M29.0007 8.21866H26.6016V8.39522H29.0007V8.21866Z" fill="#3CB27F"/>
   <path d="M29.0007 8.74969H26.6016V8.92626H29.0007V8.74969Z" fill="#3CB27F"/>
   <path d="M26.2538 9.81854H25.5469V10.5262H26.2538V9.81854Z" fill="#80CAAA"/>
   <path d="M29.0046 9.81854H26.6055V9.99511H29.0046V9.81854Z" fill="#3CB27F"/>
   <path d="M29.0046 10.3496H26.6055V10.5261H29.0046V10.3496Z" fill="#3CB27F"/>
   <path d="M25.9664 8.71871L25.6719 8.46464L25.7905 8.32784L25.9414 8.45858L26.2487 8.07108L26.3909 8.18362L25.9664 8.71871Z" fill="white"/>
   <path d="M25.9664 10.2782L25.6719 10.0241L25.7905 9.88729L25.9414 10.0174L26.2487 9.63052L26.3909 9.74307L25.9664 10.2782Z" fill="white"/>
</svg>

