<svg width="19" height="28" viewBox="0 0 19 28" fill="none" xmlns="http://www.w3.org/2000/svg">
   <path d="M11.5532 12.5233C11.5532 12.5233 12.0624 12.2106 12.3107 11.8872C12.5584 11.5637 12.6721 11.4929 12.9102 11.5296C13.1484 11.5662 13.7183 11.4595 13.7568 11.5429C13.7953 11.6262 13.6456 11.8145 13.4618 11.8322C13.2779 11.8499 13.1175 11.975 13.1175 11.975C13.2634 12.1177 13.8958 11.9718 14.0771 11.829C14.2628 11.6957 14.3165 11.944 14.1005 12.1544C13.885 12.3648 14.0272 12.1696 14.0272 12.1696C14.2426 12.2858 14.3146 12.2757 14.2098 12.3155C14.3165 12.4317 14.4549 12.2523 14.3481 12.2997C14.5042 12.3799 13.7953 13.018 13.1048 13.2669C12.9715 13.3149 12.2589 13.5973 11.811 13.6491C11.3441 13.3964 11.3555 12.6156 11.3555 12.6156C11.3555 12.6156 11.4882 12.565 11.5532 12.5233Z" fill="#FFAA83"/>
   <path d="M13.6559 12.613C13.6495 12.613 13.6439 12.6092 13.6413 12.6023C13.6388 12.5941 13.6432 12.5859 13.6514 12.5833C13.6546 12.5821 13.9964 12.4734 14.1531 12.3186C14.1587 12.3129 14.1682 12.3129 14.1739 12.3186C14.1796 12.3243 14.1796 12.3338 14.1739 12.3395C14.0122 12.4993 13.6748 12.6067 13.6603 12.6111C13.659 12.6124 13.6578 12.613 13.6559 12.613Z" fill="#994D14"/>
   <path d="M13.4837 12.3913C13.4768 12.3913 13.4711 12.3869 13.4692 12.38C13.4673 12.3717 13.4717 12.3642 13.4799 12.3616C13.4825 12.361 13.7427 12.2953 13.8299 12.246C13.8369 12.2422 13.8463 12.2448 13.8501 12.2517C13.8539 12.2587 13.8514 12.2681 13.8444 12.2719C13.7535 12.3231 13.4982 12.3875 13.4869 12.3907C13.4862 12.3913 13.485 12.3913 13.4837 12.3913Z" fill="#994D14"/>
   <path d="M11.4224 12.5492C9.78746 12.7956 7.8385 13.1683 6.30144 12.7728C6.32544 12.5429 6.35135 12.2681 6.37725 11.9629L3.27344 12.7311C3.42127 14.4722 4.03849 16.2108 5.68484 16.3827C8.46835 16.6726 11.8527 13.6769 11.8527 13.6769C11.8527 13.6769 11.8514 13.2207 11.4224 12.5492Z" fill="#348B65"/>
   <path d="M11.3151 14.1217C11.3082 14.1185 11.3044 14.1109 11.3069 14.1033C11.5375 13.3541 10.9285 12.7053 10.9222 12.699C10.9165 12.6933 10.9165 12.6838 10.9228 12.6781C10.9285 12.6724 10.9386 12.6724 10.9436 12.6787C10.95 12.6851 11.5716 13.3465 11.3353 14.1128C11.3328 14.1204 11.3246 14.1248 11.3164 14.1229C11.3157 14.1217 11.3151 14.1217 11.3151 14.1217Z" fill="#133E2B"/>
   <path d="M12.5022 11.8632C12.4984 11.8632 12.4946 11.8619 12.492 11.8594C11.684 11.1026 10.5778 10.8865 10.5665 10.884L10.5469 10.8802L10.7939 10.3925C10.7977 10.3849 10.8065 10.3824 10.8141 10.3861C10.8217 10.3899 10.8242 10.3988 10.8204 10.4064L10.5911 10.8593C10.7434 10.8922 11.7567 11.1303 12.5116 11.8379C12.5179 11.8436 12.5179 11.8531 12.5123 11.8588C12.5097 11.8613 12.5059 11.8632 12.5022 11.8632Z" fill="#994D14"/>
   <path d="M12.849 6.38837L10.6523 10.4101C10.6523 10.4101 12.1559 10.9199 12.8098 12.1563C14.518 12.3256 15.3684 13.0919 15.3684 13.0919L18.7546 8.67911C18.7546 8.67911 17.1531 7.72769 15.5396 7.84835C14.7095 6.6676 12.849 6.38837 12.849 6.38837Z" fill="#EAF8F9"/>
   <path d="M15.3701 13.1159L15.3581 13.102C15.3524 13.0957 14.7655 12.445 12.9777 12.1904C12.9694 12.1892 12.9638 12.1816 12.965 12.1734C12.9663 12.1652 12.9739 12.1595 12.9821 12.1607C14.6411 12.397 15.2741 12.9744 15.3682 13.0692L18.7323 8.68419L18.3084 8.46623C18.3008 8.46244 18.2983 8.4536 18.3021 8.44602C18.3059 8.43844 18.3147 8.43591 18.3223 8.4397L18.7784 8.67408L18.7677 8.68861L15.3701 13.1159Z" fill="#919191"/>
   <path d="M12.849 6.38837L10.6523 10.4101C10.6523 10.4101 12.1559 10.9199 12.8098 12.1563C14.0221 11.8625 15.3779 12.4633 15.3779 12.4633L18.5575 8.13075C18.5575 8.13075 17.1531 7.72705 15.5396 7.84772C14.7095 6.6676 12.849 6.38837 12.849 6.38837Z" fill="#EAF8F9"/>
   <path d="M12.849 6.38837L10.6523 10.4101C10.6523 10.4101 12.1559 10.9199 12.8098 12.1563L15.5396 7.84835C14.7095 6.6676 12.849 6.38837 12.849 6.38837Z" fill="white"/>
   <path d="M13.5424 11.0185C13.5398 11.0185 13.5367 11.0179 13.5341 11.016C13.5272 11.0116 13.5253 11.0021 13.5297 10.9952L15.5286 7.84018C15.533 7.83323 15.5425 7.83133 15.5494 7.83575C15.5564 7.84018 15.5583 7.84965 15.5539 7.8566L13.555 11.0116C13.5525 11.016 13.5474 11.0185 13.5424 11.0185Z" fill="#919191"/>
   <path d="M15.3852 12.4823L15.3745 12.4779C15.3593 12.4716 13.8735 11.8682 12.9208 12.1709C12.9126 12.1734 12.9043 12.169 12.9018 12.1614C12.8993 12.1538 12.9037 12.145 12.9113 12.1424C13.8311 11.8499 15.2362 12.3907 15.3751 12.4457C15.5198 12.246 17.8522 9.0323 18.5345 8.14089C16.9413 7.7492 15.6 7.85281 15.5438 7.85723L15.5356 7.85787L15.5306 7.85092C14.7497 6.7504 13.0111 6.43073 12.8601 6.40483L10.6686 10.4177C10.6648 10.4253 10.6553 10.4278 10.6484 10.4234C10.6414 10.4196 10.6382 10.4102 10.6427 10.4032L12.8443 6.37198L12.8544 6.37387C12.8734 6.37703 14.7282 6.67712 15.5501 7.82691C15.6796 7.81743 17.0044 7.73025 18.5642 8.11752L18.5863 8.1232L18.5724 8.14152C17.8908 9.02977 15.4175 12.4393 15.3928 12.4735L15.3852 12.4823Z" fill="#919191"/>
   <path d="M12.2578 11.9472C12.2578 11.9472 12.6331 11.5883 12.8043 11.4999C12.9749 11.4114 13.3457 11.1966 13.4329 11.1752C13.5201 11.1537 13.5561 11.4241 13.3198 11.5896C13.0835 11.7551 12.7613 12.0855 12.9736 12.2984C12.7626 12.5461 12.2578 11.9472 12.2578 11.9472Z" fill="#FFAA83"/>
   <path d="M12.5698 12.8468C12.5653 12.8468 12.5609 12.8449 12.5578 12.8411C12.5527 12.8348 12.554 12.8253 12.5609 12.8203C12.9564 12.5208 12.8939 12.191 12.8926 12.1872C12.8907 12.179 12.8964 12.1715 12.904 12.1696C12.9122 12.1677 12.9198 12.1727 12.9217 12.1809C12.9223 12.1841 12.9899 12.5322 12.5786 12.8436C12.5761 12.8462 12.5729 12.8468 12.5698 12.8468Z" fill="#994D14"/>
   <path d="M2.01172 27H4.20391C4.3271 25.5343 4.51031 21.3306 2.63842 20.7229C2.63842 20.7229 2.66811 24.8527 2.01172 27Z" fill="#2B273F"/>
   <path d="M3.65318 28H7.22627C7.48191 26.2719 8.20242 21.0414 7.94547 18.5864C7.29492 17.3069 1 18.5201 1 18.5201C1 18.5201 1.13403 20.0033 2.58942 21.6893C3.74994 23.0336 3.71529 26.6073 3.65318 28Z" fill="#3D3654"/>
   <path d="M7.99059 19.1189C7.98174 18.9521 7.96974 18.7942 7.95331 18.6476C7.32472 17.5123 1.24219 18.5889 1.24219 18.5889C1.24219 18.5889 1.26304 18.7948 1.37422 19.1353C3.48871 19.7974 5.91275 19.9061 7.99059 19.1189Z" fill="#2B273F"/>
   <path d="M5.74291 24.1123C5.67089 25.6171 5.61908 26.511 5.58813 27H5.61971C5.65067 26.5104 5.70247 25.6165 5.77449 24.1135C5.89958 21.5063 4.86793 18.496 4.85782 18.4656L4.82812 18.4757C4.8376 18.5067 5.86736 21.5113 5.74291 24.1123Z" fill="#6B678C"/>
   <path d="M5.61259 21.5865L5.58984 21.565C7.03151 20.0305 6.61013 18.6899 6.60571 18.6766L6.6354 18.6665C6.63919 18.6798 7.06752 20.0368 5.61259 21.5865Z" fill="#6B678C"/>
   <path d="M3.32269 5.40036C3.32269 5.40036 2.19185 5.56019 1.14819 6.89825C0.104535 8.23694 -0.276413 11.0249 0.208143 13.1678C0.692699 15.3107 1.24422 18.5889 1.24422 18.5889C1.24422 18.5889 2.37569 18.839 4.7315 18.8397C6.7727 18.8403 7.95472 18.6476 7.95472 18.6476C7.95472 18.6476 8.28512 11.9586 7.88522 9.69882C7.39309 6.91531 5.19205 5.84511 5.19205 5.84511L3.32269 5.40036Z" fill="#3CB27F"/>
   <path d="M4.89618 6.40672C4.89618 6.40672 4.55693 6.83947 4.63969 7.85091C2.76275 7.17051 2.24471 5.48625 3.35975 5.30746C3.26373 5.61513 4.26253 6.31638 4.89618 6.40672Z" fill="#348B65"/>
   <path d="M4.90234 6.40672C4.90234 6.40672 5.61812 6.62089 5.67435 7.38342C6.14564 6.45727 5.48103 5.94491 5.18032 5.7099C5.20369 5.88553 5.25929 6.27153 4.90234 6.40672Z" fill="#348B65"/>
   <path d="M3.501 15.6581C1.64617 14.761 1.10791 12.4273 0.569658 10.5131C0.509641 12.9662 0.210821 16.4358 2.72331 17.5723C4.46948 18.3361 6.31546 17.4081 8.03384 16.6942C8.05153 16.113 8.06858 15.4446 8.07806 14.749C6.60102 15.5918 5.03048 16.3979 3.501 15.6581Z" fill="#1C6D4A"/>
   <path d="M7.8849 9.69943C7.84636 9.47958 7.79582 9.27174 7.73707 9.07336C7.24114 9.43473 5.84875 9.81504 1.96094 9.35449V10.6212C3.85241 10.8789 6.44008 10.9756 7.92217 9.94329C7.9108 9.85674 7.89817 9.77524 7.8849 9.69943Z" fill="#348B65"/>
   <path d="M7.37769 10.6376C7.37579 10.6376 7.37453 10.6376 7.37263 10.6369C4.84625 9.7765 3.07986 7.63927 3.06217 7.61779C3.05649 7.61084 3.05775 7.60137 3.0647 7.59568C3.07165 7.59 3.08113 7.59126 3.08681 7.59821C3.1045 7.61969 4.8652 9.7506 7.38274 10.6079C7.39096 10.6104 7.39538 10.6199 7.39285 10.6281C7.39032 10.6332 7.38401 10.6376 7.37769 10.6376Z" fill="#133E2B"/>
   <path d="M8.04852 11.5745C8.04726 11.5656 8.04726 11.5543 8.04726 11.5416C8.03336 11.1923 8.01378 10.8631 7.98914 10.5643C7.50332 10.9187 5.86455 11.8177 1.96094 11.2087V12.2208C3.92569 12.4874 6.58791 12.5935 8.04852 11.5764C8.04852 11.5757 8.04852 11.5751 8.04852 11.5745Z" fill="#348B65"/>
   <path d="M7.9542 18.6628H7.95357C7.94535 18.6621 7.93904 18.6552 7.93967 18.647C7.94409 18.5743 8.34273 11.3249 7.75014 9.14917C7.1923 7.10165 5.46572 6.02325 5.44866 6.01251C5.44171 6.00808 5.43918 5.99924 5.44361 5.99166C5.44803 5.98471 5.45687 5.98218 5.46445 5.98661C5.48214 5.99735 7.2182 7.08207 7.7792 9.14096C8.37305 11.3211 7.97378 18.5756 7.96999 18.6482C7.96873 18.6564 7.96178 18.6628 7.9542 18.6628Z" fill="#133E2B"/>
   <path d="M4.59794 6.75734C4.36356 6.72765 4.08622 6.65184 3.77161 6.51032C2.89221 6.11421 2.95601 5.89373 2.95917 5.88425C2.96107 5.8792 2.96675 5.87604 2.97181 5.87794C2.97686 5.87983 2.98002 5.88552 2.97812 5.89057C2.97749 5.8931 2.92442 6.10663 3.78045 6.492C4.66491 6.89001 5.25434 6.76745 5.39016 6.55328C5.52599 6.33975 5.29603 6.00997 5.2935 6.00681C5.29034 6.00239 5.29161 5.99607 5.29603 5.99292C5.30045 5.98976 5.30677 5.99102 5.30993 5.99544C5.32004 6.00934 5.55 6.33912 5.40659 6.56402C5.31625 6.70743 5.03133 6.81167 4.59794 6.75734Z" fill="#133E2B"/>
   <path d="M3.80202 3.67253C3.80202 3.67253 3.49372 5.32583 3.16016 5.67267C4.16717 6.37644 4.7427 6.47247 5.09206 6.37707C5.21841 6.34296 5.29106 6.20776 5.2519 6.08331C5.11859 5.66129 5.1963 5.34731 5.1963 5.34731L4.2354 3.57208L3.80202 3.67253Z" fill="#FFAA83"/>
   <path d="M4.14199 6.0428C4.13883 6.0428 4.13567 6.04091 4.13378 6.03775C3.86718 5.55193 3.80147 4.67947 3.80084 4.67063C3.80021 4.66558 3.80463 4.66115 3.80969 4.66052C3.81537 4.65989 3.81916 4.66431 3.81979 4.66937C3.82043 4.67821 3.88613 5.54687 4.1502 6.0289C4.15273 6.03332 4.15083 6.03901 4.14641 6.04154C4.14452 6.0428 4.14325 6.0428 4.14199 6.0428Z" fill="#994D14"/>
   <path d="M3.35322 5.34533C3.35196 5.34533 3.3507 5.34533 3.35007 5.3447C3.34501 5.3428 3.34248 5.33711 3.34438 5.33269C3.57118 4.74516 3.71711 4.01043 3.71901 4.00348C3.72027 3.99843 3.72469 3.99527 3.73038 3.9959C3.73543 3.99716 3.73859 4.00159 3.73796 4.00727C3.7367 4.01485 3.5895 4.75085 3.3627 5.33964C3.3608 5.3428 3.35701 5.34533 3.35322 5.34533Z" fill="#994D14"/>
   <path d="M4.89384 6.40671C4.89384 6.40671 4.50404 6.59623 4.5868 7.60704C3.15398 7.0631 2.23668 5.48561 3.35172 5.30682C3.2557 5.61512 4.26019 6.31637 4.89384 6.40671Z" fill="white"/>
   <path d="M4.89844 6.40669C4.89844 6.40669 5.53209 6.34731 5.70392 7.0056C5.87576 6.56463 5.5422 5.81979 5.17641 5.70987C5.19978 5.8855 5.25538 6.2715 4.89844 6.40669Z" fill="white"/>
   <path d="M6.59201 1.61108C6.59201 1.61108 6.74426 2.37487 6.59201 3.11465C6.57811 4.18232 6.26981 5.16596 5.74419 5.40476C5.21857 5.64357 4.05172 5.38897 3.79081 4.06102C3.53052 2.73307 4.09721 1.27625 4.13258 1.25224C4.16796 1.2276 6.3532 1.08546 6.59201 1.61108Z" fill="#FFAA83"/>
   <path d="M6.48604 4.1545C6.48477 4.1545 6.48414 4.1545 6.48288 4.15387C6.47782 4.15197 6.4753 4.14692 6.47719 4.14186C6.56437 3.90369 6.59722 3.12221 6.59722 3.11463C6.59786 3.11021 6.6484 2.79623 6.66293 2.53973C6.67683 2.28324 6.61744 1.73488 6.61681 1.72919C6.61618 1.72414 6.61997 1.71908 6.62502 1.71845C6.63008 1.71782 6.63513 1.72161 6.63513 1.72667C6.63576 1.73235 6.69515 2.28198 6.68125 2.54037C6.66672 2.79812 6.61618 3.11337 6.61555 3.11653C6.61428 3.14748 6.58269 3.90748 6.49425 4.14818C6.49298 4.15197 6.48983 4.1545 6.48604 4.1545Z" fill="#994D14"/>
   <path d="M3.83391 3.31298C3.83391 3.31298 3.68481 2.80316 3.27733 2.8657C2.86985 2.92824 2.90902 3.44881 3.07706 3.8784C3.24511 4.30799 3.87623 4.13742 3.88066 4.00854C3.88571 3.87903 3.83391 3.31298 3.83391 3.31298Z" fill="#FFAA83"/>
   <path d="M4.28228 1.62368C4.28228 1.62368 4.57794 2.24659 4.29681 2.73999C4.01568 3.23339 4.02452 3.45766 4.07759 3.8822C4.13066 4.30611 4.607 4.24672 4.85275 4.18923C5.09851 4.13174 5.64181 3.8683 6.07962 4.22587C6.30516 4.26946 6.50795 4.07173 6.50795 4.07173C6.50795 4.07173 6.51048 5.07179 5.88125 5.53929C5.25202 6.00679 4.25638 5.41231 4.06495 4.98903C3.87353 4.56576 3.89122 3.90936 3.86722 3.62887C3.84384 3.34773 3.65495 2.86192 3.18429 2.89414C2.70163 2.45759 2.46535 0.78218 3.47237 0.722163C3.20766 -0.176191 5.20085 0.0145983 5.53631 0.0215476C5.67846 0.0247064 5.75869 0.13779 5.66077 0.235712C5.5281 0.369013 5.17368 0.497891 5.17368 0.497891C5.93116 0.176959 6.20597 0.316577 6.10868 0.4941C6.01139 0.671623 5.96906 0.719005 5.96906 0.719005C5.96906 0.719005 6.35254 0.550326 6.62103 0.791025C6.89016 1.03172 6.45046 1.08163 6.45046 1.08163C6.45046 1.08163 6.90848 1.04689 7.01967 1.35518C7.13086 1.66285 6.63241 1.80183 6.31084 1.69696C5.98928 1.59209 5.8326 1.46827 5.8326 1.46827C5.8326 1.46827 5.89515 1.80436 5.60896 1.79615C5.32278 1.7873 5.01006 1.51754 5.01006 1.51754C5.01006 1.51754 5.17179 1.76077 5.00185 1.78225C4.83127 1.8031 4.28228 1.62368 4.28228 1.62368Z" fill="#3D3654"/>
   <path d="M4.98388 2.45702C4.98388 2.45702 5.31492 2.3591 5.51076 2.42923C5.70597 2.49935 5.47412 2.57327 5.36735 2.54736C5.26059 2.52146 5.0142 2.53031 4.97314 2.51009C4.93144 2.48988 4.98388 2.45702 4.98388 2.45702Z" fill="#3D3654"/>
   <path d="M6.68434 2.78425C6.68434 2.78425 6.49102 2.58904 6.31602 2.58588C6.14103 2.58335 6.27433 2.72423 6.36404 2.73687C6.45375 2.74887 6.62748 2.83795 6.66728 2.83416C6.70645 2.83037 6.68434 2.78425 6.68434 2.78425Z" fill="#3D3654"/>
   <path d="M5.90285 4.05091C5.77587 4.0686 5.57939 3.92583 5.57055 3.91951C5.56612 3.91635 5.56486 3.91003 5.56865 3.90498C5.57181 3.90056 5.57813 3.89929 5.58318 3.90308C5.58571 3.90498 5.80745 4.06734 5.92243 4.02564C5.95339 4.01427 5.97234 3.98963 5.98245 3.95046C6.03615 3.72998 6.03236 3.07233 6.03236 3.06601C6.03236 3.06032 6.03678 3.05527 6.04247 3.0559C6.04815 3.0559 6.05257 3.06032 6.05257 3.06601C6.05257 3.09317 6.05573 3.73251 6.00203 3.95552C5.99066 4.00164 5.96666 4.03196 5.92938 4.04523C5.92054 4.04776 5.91169 4.04965 5.90285 4.05091Z" fill="#994D14"/>
   <path d="M5.48089 3.03001C5.48089 3.10456 5.44615 3.16457 5.40256 3.16457C5.3596 3.16457 5.32422 3.10456 5.32422 3.03001C5.32422 2.95546 5.35896 2.89545 5.40256 2.89545C5.44551 2.89545 5.48089 2.95546 5.48089 3.03001Z" fill="#994D14"/>
   <path d="M6.46917 3.16456C6.46917 3.23911 6.43443 3.29913 6.39084 3.29913C6.34788 3.29913 6.3125 3.23911 6.3125 3.16456C6.3125 3.09002 6.34725 3.03 6.39084 3.03C6.43443 3.03 6.46917 3.09002 6.46917 3.16456Z" fill="#994D14"/>
   <path d="M3.60742 3.86713C3.59226 3.86903 3.57646 3.86777 3.5594 3.86145C3.49939 3.8406 3.43748 3.76732 3.44063 3.69087C3.44442 3.60685 3.53919 3.53799 3.60236 3.51841C3.61058 3.51588 3.61816 3.51398 3.62511 3.51335C3.5613 3.42806 3.47601 3.40595 3.41536 3.41417H3.41473C3.36861 3.42048 3.33324 3.44512 3.32313 3.47797C3.32123 3.48366 3.31555 3.48619 3.31049 3.48492C3.30481 3.48303 3.30228 3.47734 3.30354 3.47229C3.31618 3.43186 3.35724 3.40216 3.41157 3.39458H3.41221C3.48043 3.38511 3.5752 3.41038 3.64532 3.50767C3.62637 3.43565 3.5992 3.36047 3.56951 3.29034C3.52529 3.18737 3.4419 3.1185 3.35156 3.11092C3.27891 3.10461 3.2132 3.13935 3.17024 3.20569C3.06664 3.36552 3.19488 3.76037 3.19614 3.76416C3.19804 3.76921 3.19488 3.77553 3.18983 3.77679C3.18477 3.77869 3.17846 3.77553 3.17719 3.77048C3.17151 3.75405 3.04452 3.36236 3.15319 3.19432C3.20057 3.12103 3.27322 3.08313 3.35345 3.09008C3.45137 3.09829 3.54172 3.1722 3.58846 3.2815C3.66996 3.47166 3.73882 3.73004 3.6668 3.83049C3.65101 3.85134 3.63079 3.86398 3.60742 3.86713ZM3.62574 3.5342C3.61689 3.53546 3.60426 3.53862 3.5872 3.5462C3.52845 3.57274 3.46401 3.62959 3.46148 3.69214C3.45895 3.7591 3.51329 3.82417 3.56635 3.8425C3.58594 3.84944 3.62321 3.85513 3.64975 3.81849C3.68891 3.76479 3.68133 3.65234 3.65038 3.52725L3.63901 3.53483C3.63837 3.5342 3.63332 3.53294 3.62574 3.5342Z" fill="#994D14"/>
   <path d="M5.5754 4.70658C5.51602 4.71479 5.45979 4.71226 5.40673 4.69773C5.20772 4.64403 5.1256 4.45324 5.1218 4.44503C5.11991 4.43998 5.1218 4.43366 5.12749 4.43177C5.13254 4.42924 5.13886 4.43177 5.14076 4.43745C5.14139 4.43935 5.22288 4.62761 5.41241 4.67815C5.5653 4.71921 5.74471 4.66172 5.94688 4.50821C5.9513 4.50505 5.95762 4.50568 5.96141 4.5101C5.96456 4.51452 5.96393 4.52084 5.95951 4.52463C5.82116 4.62887 5.69291 4.69015 5.5754 4.70658Z" fill="white"/>
   <path d="M9.625 12.1898L17.8157 1.97809L17.8852 2.03937L9.85306 12.5796L9.625 12.1898Z" fill="#3D3654"/>
   <path d="M9.02099 12.1203C9.02099 12.1203 9.36845 11.889 9.51818 11.51C9.6679 11.1309 9.78731 11.1297 10.1051 10.9692C10.3205 10.8605 10.8107 10.503 10.8701 10.5731C10.9302 10.6426 10.8727 10.8132 10.7255 10.9243C10.5233 11.0779 10.3849 11.3059 10.3849 11.3059C10.5644 11.4032 11.1216 10.9471 11.2561 10.7601C11.3983 10.5807 11.5177 10.8049 11.3686 11.0665C11.2195 11.328 11.0843 11.3956 11.0843 11.3956C11.3237 11.4481 11.1664 11.6648 11.0767 11.7324C11.2113 11.8145 11.0691 11.9863 10.9794 12.0615C11.0767 12.1512 10.9422 12.3572 10.8221 12.4336C10.7027 12.5101 9.99326 12.9599 9.57693 13.133C9.05826 13.018 8.85547 12.2643 8.85547 12.2643C8.85547 12.2643 8.96982 12.1784 9.02099 12.1203Z" fill="#FFAA83"/>
   <path d="M0.671823 8.60901C0.671823 8.60901 1.11721 7.75993 2.03452 7.99621C2.95182 8.23248 3.75984 12.1658 4.04918 13.8014C5.63552 13.7597 7.40759 12.8664 8.9118 12.1803C9.50944 12.7078 9.63515 13.1463 9.63515 13.1463C9.63515 13.1463 7.20353 16.9564 4.44719 17.4416C1.69084 17.9274 0.534101 13.2985 0.450077 11.5681C0.366054 9.83777 0.478506 9.18833 0.671823 8.60901Z" fill="#348B65"/>
   <path d="M3.7738 13.0427C3.77127 13.0427 3.76875 13.042 3.76622 13.0408C1.37819 11.6326 0.833614 9.67161 0.82856 9.65203C0.826665 9.64381 0.831087 9.6356 0.8393 9.63371C0.847513 9.63181 0.855726 9.63623 0.857621 9.64445C0.862675 9.66403 1.40472 11.6136 3.78201 13.0155C3.78896 13.0199 3.79149 13.0288 3.78707 13.0357C3.78391 13.0401 3.77949 13.0427 3.7738 13.0427Z" fill="#133E2B"/>
   <path d="M3.42768 13.1071C3.42642 13.1071 3.42516 13.1071 3.42389 13.1064C2.21282 12.8152 1.13252 11.7956 1.12178 11.7848C1.1161 11.7791 1.11546 11.7696 1.12115 11.764C1.12683 11.7583 1.13631 11.7576 1.142 11.7633C1.15274 11.7734 2.22735 12.788 3.43084 13.0774C3.43906 13.0793 3.44411 13.0875 3.44158 13.0957C3.44095 13.1027 3.43463 13.1071 3.42768 13.1071Z" fill="#133E2B"/>
   <path d="M4.62812 15.4857C4.62559 15.4857 4.62243 15.485 4.62054 15.4831C4.61359 15.4787 4.61106 15.4699 4.61548 15.4623C4.62559 15.4459 5.63956 13.8323 7.56009 13.0136C7.56767 13.0104 7.57651 13.0136 7.57967 13.0218C7.58283 13.0294 7.57967 13.0382 7.57146 13.0414C5.65977 13.857 4.65023 15.4623 4.64012 15.4781C4.63822 15.4831 4.63317 15.4857 4.62812 15.4857Z" fill="#133E2B"/>
   <path d="M4.0374 13.8159C4.03045 13.8159 4.02413 13.8109 4.02287 13.8039C4.0216 13.7976 3.90662 13.1759 3.65455 11.9661C3.44102 10.9395 2.87307 8.21288 1.95766 7.99682C1.07952 7.78897 0.677725 8.60772 0.673303 8.61594C0.669512 8.62352 0.660668 8.62668 0.653087 8.62289C0.645506 8.61909 0.642347 8.61025 0.646137 8.60267C0.649928 8.59446 1.0631 7.75422 1.96398 7.96776C2.79158 8.1636 3.31719 10.2042 3.68298 11.9604C3.93505 13.1709 4.05066 13.7925 4.05129 13.7989C4.05256 13.8071 4.0475 13.8146 4.03929 13.8165C4.03929 13.8159 4.03866 13.8159 4.0374 13.8159Z" fill="#133E2B"/>
   <path d="M2.96644 13.8317C2.95823 13.8304 2.95254 13.8235 2.95317 13.8152C2.9538 13.807 2.96139 13.8013 2.9696 13.802C2.97528 13.8026 3.52617 13.8633 4.1952 13.7799C4.20341 13.7792 4.211 13.7849 4.21163 13.7931C4.21289 13.8013 4.20657 13.8089 4.19836 13.8096C3.52681 13.8936 2.97213 13.8323 2.96644 13.8317Z" fill="#133E2B"/>
   <path d="M9.23704 13.7212C9.22946 13.7199 9.22377 13.7136 9.22377 13.706C9.2402 12.922 8.47577 12.4659 8.46819 12.4615C8.46124 12.457 8.45872 12.4482 8.46314 12.4412C8.46693 12.4343 8.4764 12.4318 8.48335 12.4362C8.49093 12.4406 9.27052 12.9062 9.25409 13.7073C9.25409 13.7155 9.24714 13.7218 9.23893 13.7218C9.23767 13.7212 9.23767 13.7212 9.23704 13.7212Z" fill="#133E2B"/>
   <path d="M2.96997 14.6978C2.96808 14.6978 2.96618 14.6972 2.96429 14.6959C2.95734 14.6915 2.95481 14.6827 2.95923 14.6757C3.41599 13.9113 4.56073 13.7439 4.5721 13.742C4.58031 13.7407 4.58789 13.7464 4.58916 13.7546C4.59042 13.7628 4.58474 13.7704 4.57652 13.7717C4.56515 13.7736 3.43494 13.9391 2.98513 14.6909C2.98134 14.6959 2.97566 14.6985 2.96997 14.6978Z" fill="#133E2B"/>
   <path d="M10.4603 11.7444C10.454 11.7444 10.4483 11.7406 10.4464 11.7349C10.4433 11.7274 10.4471 11.7185 10.4553 11.716C10.4591 11.7147 10.8413 11.5675 11.0719 11.3843C11.0782 11.3793 11.0877 11.3805 11.0927 11.3868C11.0978 11.3932 11.0965 11.4026 11.0902 11.4077C10.8558 11.5941 10.4692 11.7425 10.4654 11.7438C10.4641 11.7438 10.4622 11.7444 10.4603 11.7444Z" fill="#994D14"/>
   <path d="M10.5266 12.0508C10.5203 12.0508 10.5146 12.047 10.5128 12.0413C10.5096 12.0337 10.514 12.0249 10.5216 12.0223C10.5248 12.0211 10.8394 11.9017 11.0706 11.7178C11.0769 11.7128 11.0864 11.7141 11.0914 11.7204C11.0965 11.7267 11.0952 11.7362 11.0889 11.7412C10.8545 11.9276 10.5349 12.0489 10.5317 12.0501C10.5304 12.0508 10.5285 12.0508 10.5266 12.0508Z" fill="#994D14"/>
   <path d="M10.542 12.3307C10.5356 12.3307 10.53 12.3269 10.5281 12.3206C10.5255 12.313 10.53 12.3041 10.5375 12.3016C10.5394 12.301 10.734 12.2346 10.9646 12.0514C10.9709 12.0464 10.9804 12.0476 10.9854 12.054C10.9905 12.0603 10.9892 12.0697 10.9829 12.0748C10.7479 12.2612 10.5552 12.3269 10.547 12.33C10.5451 12.3307 10.5432 12.3307 10.542 12.3307Z" fill="#994D14"/>
</svg>

