<svg width="24" height="24" viewBox="0 0 24 24" fill="none" xmlns="http://www.w3.org/2000/svg">
   <circle cx="12" cy="12" r="12" fill="#3CB27F"/>
   <circle cx="12" cy="12" r="10" fill="#369B70"/>
   <path d="M12.188 19.104C11.5672 19.104 11.0692 18.591 11.0875 17.9705L11.2984 10.8416C11.3127 10.3606 11.7067 9.978 12.188 9.978C12.6693 9.978 13.0633 10.3606 13.0776 10.8416L13.2885 17.9705C13.3068 18.591 12.8088 19.104 12.188 19.104ZM12.134 8.268C11.5077 8.268 11 7.76029 11 7.134C11 6.50771 11.5077 6 12.134 6L12.206 6C12.8323 6 13.34 6.50771 13.34 7.134C13.34 7.76029 12.8323 8.268 12.206 8.268H12.134Z" fill="white"/>
</svg>
