<svg width="115" height="71" viewBox="0 0 115 71" fill="none" xmlns="http://www.w3.org/2000/svg">
   <path fill-rule="evenodd" clip-rule="evenodd" d="M42.0749 9.04088V7.66866e-07L24.6886 0V17.0386L7.99771 17.0386V34.4249H0V43.4658H7.99771V70.9362H17.0386V43.4658H24.6886V53.5498H33.7295V26.0795H41.7272V17.0386H33.7295V9.04088H42.0749ZM17.0386 26.0795H24.6886V34.4249H17.0386V26.0795Z" fill="#3CB27F"/>
   <path d="M84.1497 14.6045H81.3679V37.2067H84.1497V14.6045Z" fill="white"/>
   <path d="M77.5429 21.2115H74.7611V34.4249L66.4157 34.4249V21.2116H63.6339L63.6339 37.2067L77.5429 37.2069V21.2115Z" fill="white"/>
   <path d="M108.838 14.6045H111.62V37.2067H108.838V14.6045Z" fill="white"/>
   <path d="M61.1998 14.952V17.7338L54.9407 17.7338V21.9065L61.1998 21.9065V24.6883L54.9407 24.6883V37.2065H52.1589V24.6883H49.0294L49.0294 21.9065H52.1589V14.952H61.1998Z" fill="white"/>
   <path d="M98.7542 17.7338V14.952L89.7134 14.952L89.7134 21.9065H86.5838V24.6883H89.7134V37.2065H92.4952V24.6883L98.7542 24.6883V21.9065L92.4952 21.9065V17.7338L98.7542 17.7338Z" fill="white"/>
   <path d="M104.666 16.8645C104.666 17.9208 103.809 18.777 102.753 18.777C101.697 18.777 100.841 17.9208 100.841 16.8645C100.841 15.8083 101.697 14.952 102.753 14.952C103.809 14.952 104.666 15.8083 104.666 16.8645Z" fill="white"/>
   <path d="M101.188 20.8635H103.97V37.2067H101.188V20.8635Z" fill="white"/>
   <path d="M98.8307 40.684C99.4069 40.684 99.8739 40.217 99.8739 39.6408C99.8739 39.0647 99.4069 38.5977 98.8307 38.5977C98.2546 38.5977 97.7876 39.0647 97.7876 39.6408C97.7876 40.217 98.2546 40.684 98.8307 40.684Z" fill="white"/>
   <path d="M99.5262 48.6817V41.7272H98.1353V48.6817H99.5262Z" fill="white"/>
   <path fill-rule="evenodd" clip-rule="evenodd" d="M65.4423 42.7491V38.6508H66.689V48.6817H65.4423V47.4494C64.8309 48.3951 63.9281 48.868 62.7339 48.868C61.7213 48.868 60.8663 48.505 60.1689 47.779C59.462 47.0433 59.1085 46.1501 59.1085 45.0993C59.1085 44.058 59.462 43.1695 60.1689 42.4339C60.8758 41.6983 61.7309 41.3305 62.7339 41.3305C63.9281 41.3305 64.8309 41.8034 65.4423 42.7491ZM62.8916 47.6643C63.6176 47.6643 64.2242 47.4207 64.7115 46.9335C65.1987 46.4271 65.4423 45.8157 65.4423 45.0993C65.4423 44.3732 65.1987 43.7666 64.7115 43.2794C64.2242 42.7826 63.6176 42.5342 62.8916 42.5342C62.1751 42.5342 61.5732 42.7826 61.086 43.2794C60.5988 43.7666 60.3552 44.3732 60.3552 45.0993C60.3552 45.8157 60.5988 46.4271 61.086 46.9335C61.5732 47.4207 62.1751 47.6643 62.8916 47.6643Z" fill="white"/>
   <path fill-rule="evenodd" clip-rule="evenodd" d="M58.0476 45.6724H52.0434C52.1676 46.3029 52.459 46.7997 52.9175 47.1628C53.3761 47.5162 53.9493 47.693 54.6371 47.693C55.5829 47.693 56.2707 47.3443 56.7006 46.6469L57.761 47.2487C57.0541 48.3283 56.0032 48.868 54.6084 48.868C53.4812 48.868 52.5545 48.5146 51.8284 47.8076C51.1215 47.0815 50.768 46.1788 50.768 45.0993C50.768 44.0102 51.1167 43.1122 51.8141 42.4052C52.5115 41.6887 53.4143 41.3305 54.5225 41.3305C55.5733 41.3305 56.4283 41.7031 57.0875 42.4482C57.7562 43.1743 58.0906 44.0627 58.0906 45.1136C58.0906 45.2951 58.0763 45.4814 58.0476 45.6724ZM54.5225 42.5055C53.8633 42.5055 53.3092 42.6918 52.8602 43.0644C52.4207 43.437 52.1485 43.9433 52.0434 44.5834H56.8296C56.7245 43.9242 56.4618 43.4131 56.0414 43.0501C55.6211 42.687 55.1148 42.5055 54.5225 42.5055Z" fill="white"/>
   <path d="M79.1509 48.868C78.0714 48.868 77.1734 48.5098 76.4569 47.7933C75.7404 47.0672 75.3822 46.1692 75.3822 45.0992C75.3822 44.0293 75.7404 43.1361 76.4569 42.4195C77.1734 41.6935 78.0714 41.3305 79.1509 41.3305C79.8579 41.3305 80.4931 41.5024 81.0568 41.8463C81.6204 42.1807 82.0408 42.6345 82.3178 43.2077L81.2717 43.8096C81.0902 43.4274 80.8084 43.1217 80.4263 42.8924C80.0537 42.6631 79.6286 42.5485 79.1509 42.5485C78.4344 42.5485 77.8326 42.7921 77.3453 43.2794C76.8677 43.7761 76.6289 44.3828 76.6289 45.0992C76.6289 45.8062 76.8677 46.408 77.3453 46.9048C77.8326 47.392 78.4344 47.6357 79.1509 47.6357C79.6286 47.6357 80.0585 47.5258 80.4406 47.3061C80.8227 47.0768 81.1141 46.771 81.3147 46.3889L82.3751 47.0051C82.0599 47.5783 81.6157 48.0321 81.0425 48.3665C80.4693 48.7008 79.8387 48.868 79.1509 48.868Z" fill="white"/>
   <path fill-rule="evenodd" clip-rule="evenodd" d="M89.4407 42.7491V41.5168H90.6874V48.6817H89.4407V47.4494C88.8293 48.3951 87.9265 48.868 86.7323 48.868C85.7197 48.868 84.8647 48.505 84.1673 47.7789C83.4603 47.0433 83.1069 46.1501 83.1069 45.0992C83.1069 44.0579 83.4603 43.1695 84.1673 42.4339C84.8742 41.6983 85.7292 41.3305 86.7323 41.3305C87.9265 41.3305 88.8293 41.8034 89.4407 42.7491ZM86.8899 47.6643C87.616 47.6643 88.2226 47.4207 88.7098 46.9335C89.1971 46.4271 89.4407 45.8157 89.4407 45.0992C89.4407 44.3732 89.1971 43.7666 88.7098 43.2794C88.2226 42.7826 87.616 42.5342 86.8899 42.5342C86.1735 42.5342 85.5716 42.7826 85.0844 43.2794C84.5972 43.7666 84.3536 44.3732 84.3536 45.0992C84.3536 45.8157 84.5972 46.4271 85.0844 46.9335C85.5716 47.4207 86.1735 47.6643 86.8899 47.6643Z" fill="white"/>
   <path fill-rule="evenodd" clip-rule="evenodd" d="M104.187 48.868C105.248 48.868 106.141 48.505 106.867 47.7789C107.603 47.0433 107.97 46.1501 107.97 45.0992C107.97 44.0484 107.603 43.1552 106.867 42.4195C106.141 41.6935 105.248 41.3305 104.187 41.3305C103.127 41.3305 102.234 41.6935 101.508 42.4195C100.781 43.1456 100.418 44.0388 100.418 45.0992C100.418 46.1596 100.781 47.0529 101.508 47.7789C102.234 48.505 103.127 48.868 104.187 48.868ZM105.993 46.9191C105.506 47.4064 104.904 47.65 104.187 47.65C103.48 47.65 102.883 47.4064 102.396 46.9191C101.909 46.4319 101.665 45.8253 101.665 45.0992C101.665 44.3732 101.909 43.7666 102.396 43.2794C102.883 42.7921 103.48 42.5485 104.187 42.5485C104.904 42.5485 105.506 42.7921 105.993 43.2794C106.48 43.7666 106.724 44.3732 106.724 45.0992C106.724 45.8253 106.48 46.4319 105.993 46.9191Z" fill="white"/>
   <path d="M69.4857 41.7272H68.3366V48.6817H74.0817V41.7272H72.9327V47.5327H69.4857V41.7272Z" fill="white"/>
   <path d="M93.0932 48.6817H97.0921V47.4647H94.3103V42.7704H97.0921V41.5533H94.3103V40.3363H93.0932V41.5533H91.8762V42.7704H93.0932V48.6817Z" fill="white"/>
   <path d="M108.915 41.7272V49.0294H110.132V42.9442H113.783V49.0294H115V41.7272H108.915Z" fill="white"/>
</svg>
