<svg xmlns="http://www.w3.org/2000/svg" viewBox="0 0 71 60" width="71" height="60" preserveAspectRatio="xMidYMid meet" style="width: 100%; height: 100%; transform: translate3d(0px, 0px, 0px);"><defs><clipPath id="__lottie_element_4044"><rect width="71" height="60" x="0" y="0"></rect></clipPath></defs><g clip-path="url(#__lottie_element_4044)"><g transform="matrix(0.7287763953208923,0,0,0.7287763953208923,9.628437042236328,8.136707305908203)" opacity="1" style="display: block;"><path fill="rgb(60,178,127)" fill-opacity="1" d=" M28.35,50.62 C35.59,43.39 35.45,43.48 35.23,42.31 C35.12,41.72 34.59,41.04 34.01,40.73 C33.46,40.45 32.29,40.46 31.85,40.76 C31.65,40.89 28.97,43.5 25.89,46.57 C22.82,49.64 20.3,52.05 20.3,51.93 C20.3,51.81 20.37,50.64 20.45,49.33 C21,40.47 23.72,32.51 28.64,25.29 C30.22,22.98 31.67,21.21 33.8,19.02 C41.53,11.07 51.63,6.1 62.61,4.86 C63.36,4.77 65.03,4.65 66.32,4.59 C68.86,4.48 69.07,4.41 69.75,3.5 C70.16,2.94 70.16,1.57 69.75,1.01 C69.08,0.11 68.81,0.02 66.89,0 C65.93,-0.01 64.81,0.01 64.41,0.04 C64.41,0.04 64.41,0.04 64.41,0.04 C64.02,0.07 62.81,0.19 61.74,0.32 C40.27,2.81 22.44,18.54 17.27,39.56 C16.39,43.14 16.03,45.69 15.74,50.54 C15.74,50.54 15.65,51.96 15.65,51.96 C15.65,51.96 10.07,46.4 10.07,46.4 C4.07,40.43 3.98,40.35 2.77,40.58 C1.18,40.88 0.4,42.91 1.37,44.22 C1.6,44.53 5.12,48.11 9.2,52.18 C14.31,57.27 16.78,59.64 17.15,59.79 C17.79,60.06 18.35,60.07 18.89,59.83 C19.11,59.73 22.83,56.12 27.16,51.81 C27.57,51.39 27.97,50.99 28.35,50.62"></path><g opacity="1" transform="matrix(1,0,0,1,35.279998779296875,30)"><path stroke-linecap="butt" stroke-linejoin="miter" fill-opacity="0" stroke-miterlimit="4" stroke="rgb(60,178,127)" stroke-opacity="1" stroke-width="2" d=" M-6.932000160217285,20.615999221801758 C0.31200000643730164,13.38599967956543 0.17100000381469727,13.482000350952148 -0.04800000041723251,12.3149995803833 C-0.1599999964237213,11.718000411987305 -0.6880000233650208,11.036999702453613 -1.2730000019073486,10.734000205993652 C-1.8220000267028809,10.449999809265137 -2.98799991607666,10.463000297546387 -3.434000015258789,10.758000373840332 C-3.630000114440918,10.887999534606934 -6.309000015258789,13.503000259399414 -9.38700008392334,16.56999969482422 C-12.46399974822998,19.63599967956543 -14.980999946594238,22.04800033569336 -14.979999542236328,21.929000854492188 C-14.979999542236328,21.81100082397461 -14.913000106811523,20.641000747680664 -14.831000328063965,19.33099937438965 C-14.277000427246094,10.473999977111816 -11.562000274658203,2.507999897003174 -6.63700008392334,-4.711999893188477 C-5.061999797821045,-7.019999980926514 -3.6050000190734863,-8.788000106811523 -1.4800000190734863,-10.97599983215332 C6.252999782562256,-18.934999465942383 16.351999282836914,-23.900999069213867 27.32699966430664,-25.142000198364258 C28.08099937438965,-25.226999282836914 29.753999710083008,-25.34600067138672 31.04199981689453,-25.406999588012695 C33.58000183105469,-25.524999618530273 33.78900146484375,-25.591999053955078 34.46699905395508,-26.5 C34.8849983215332,-27.05900001525879 34.8849983215332,-28.42799949645996 34.46699905395508,-28.98699951171875 C33.797000885009766,-29.885000228881836 33.5260009765625,-29.981000900268555 31.613000869750977,-29.996999740600586 C30.645999908447266,-30.006000518798828 29.530000686645508,-29.98900032043457 29.132999420166016,-29.959999084472656 C29.132999420166016,-29.959999084472656 29.132999420166016,-29.959999084472656 29.132999420166016,-29.959999084472656 C28.73699951171875,-29.930999755859375 27.534000396728516,-29.80500030517578 26.461999893188477,-29.680999755859375 C4.993000030517578,-27.19499969482422 -12.838000297546387,-11.463000297546387 -18.010000228881836,9.557000160217285 C-18.892000198364258,13.144000053405762 -19.246999740600586,15.690999984741211 -19.54400062561035,20.538000106811523 C-19.54400062561035,20.538000106811523 -19.631999969482422,21.961000442504883 -19.631999969482422,21.961000442504883 C-19.631999969482422,21.961000442504883 -25.21299934387207,16.400999069213867 -25.21299934387207,16.400999069213867 C-31.208999633789062,10.427000045776367 -31.299999237060547,10.354999542236328 -32.507999420166016,10.581999778747559 C-34.10100173950195,10.880000114440918 -34.8849983215332,12.91100025177002 -33.91299819946289,14.218999862670898 C-33.68199920654297,14.529000282287598 -30.158000946044922,18.110000610351562 -26.07900047302246,22.177000045776367 C-20.9689998626709,27.274999618530273 -18.496000289916992,29.642000198364258 -18.125999450683594,29.79400062561035 C-17.490999221801758,30.05699920654297 -16.93400001525879,30.06800079345703 -16.388999938964844,29.829999923706055 C-16.17099952697754,29.733999252319336 -12.45199966430664,26.12299919128418 -8.12399959564209,21.80500030517578 C-7.705999851226807,21.38800048828125 -7.309000015258789,20.992000579833984 -6.932000160217285,20.615999221801758"></path></g></g></g></svg>
