<svg width="25" height="22" viewBox="0 0 25 22" fill="none" xmlns="http://www.w3.org/2000/svg">
   <path fill-rule="evenodd" clip-rule="evenodd" d="M16.4103 1.16956e-05C16.3878 0.000286354 16.365 0.00565469 16.3449 0.0174293C16.3048 0.0409603 16.2796 0.0841759 16.2796 0.130647V3.46184C16.2796 3.49457 16.2643 3.52382 16.236 3.54024C16.2076 3.55669 16.1729 3.55669 16.1445 3.54024L15.5998 3.22671C15.5186 3.17994 15.4195 3.17997 15.3383 3.22671L13.164 4.48081C13.0827 4.52767 13.0332 4.61782 13.0332 4.71159V7.21979C13.0332 7.31348 13.0827 7.39927 13.164 7.44622L15.3383 8.70032C15.4196 8.74719 15.5185 8.74719 15.5998 8.70032L17.7742 7.44622C17.8554 7.39927 17.9049 7.31348 17.9049 7.21979V0.966714C17.9049 0.871594 17.853 0.782326 17.7698 0.735924L16.4756 0.0130757C16.4553 0.00174718 16.4328 -0.00023096 16.4103 2.00775e-05V1.16956e-05ZM2.42276 3.1309C2.3813 3.13257 2.34234 3.13981 2.30511 3.16138L0.130725 4.41548C0.0497033 4.46229 0 4.54754 0 4.64192L0.00434815 8.00794C0.00434815 8.05476 0.0285186 8.09824 0.0697108 8.12118C0.110085 8.14532 0.160197 8.14532 0.200435 8.12118L1.49025 7.3809C1.57195 7.33239 1.62533 7.24802 1.62533 7.15446V5.58249C1.62533 5.48873 1.67469 5.40267 1.75606 5.35606L2.3051 5.03818C2.34608 5.01451 2.39007 5.00335 2.43582 5.00335C2.48064 5.00335 2.5267 5.0145 2.56655 5.03818L3.11559 5.35606C3.19695 5.40267 3.24632 5.48873 3.24632 5.58249V7.15446C3.24632 7.24802 3.30023 7.33294 3.3814 7.3809L4.67121 8.12118C4.71172 8.14532 4.76176 8.14532 4.80194 8.12118C4.84198 8.09824 4.8673 8.05476 4.8673 8.00794L4.87165 4.64192C4.87165 4.54754 4.8225 4.46229 4.74092 4.41548L2.56654 3.16138C2.52977 3.13981 2.49064 3.1326 2.44889 3.1309H2.42275H2.42276ZM21.9617 3.16138C21.9163 3.16133 21.8718 3.17281 21.831 3.19622L19.6566 4.45032C19.5754 4.49719 19.5259 4.58299 19.5259 4.67675V7.18495C19.5259 7.27926 19.579 7.36477 19.661 7.41138L21.8179 8.63936C21.8976 8.68481 21.9948 8.68821 22.075 8.64367L23.3823 7.91646C23.4237 7.89347 23.4518 7.85053 23.452 7.80325C23.4523 7.75595 23.4276 7.71356 23.3866 7.69003L21.1992 6.43593C21.1582 6.41259 21.1294 6.3653 21.1294 6.31835V5.53454C21.1294 5.48768 21.1585 5.44473 21.1992 5.42134L21.8789 5.02942C21.9194 5.00603 21.969 5.00603 22.0097 5.02942L22.6894 5.42134C22.73 5.44473 22.7548 5.48768 22.7548 5.53454V6.1529C22.7548 6.19983 22.7795 6.2427 22.8201 6.2661C22.8609 6.28956 22.9103 6.28966 22.9509 6.2661L24.2538 5.50843C24.3346 5.46148 24.3845 5.37546 24.3845 5.28199V4.67671C24.3845 4.58322 24.3348 4.49722 24.2538 4.45027L22.0924 3.19618C22.0517 3.1726 22.0071 3.1614 21.9617 3.16134V3.16138ZM15.4604 5.03382C15.4717 5.03382 15.485 5.03661 15.4952 5.04246L16.2403 5.47357C16.2606 5.48527 16.2752 5.50683 16.2752 5.53017V6.39236C16.2752 6.41577 16.2607 6.43734 16.2403 6.44897L15.4952 6.88007C15.4749 6.89163 15.4501 6.89163 15.4298 6.88007L14.6847 6.44897C14.6644 6.43727 14.6499 6.41577 14.6499 6.39236V5.53017C14.6499 5.50683 14.6645 5.48533 14.6847 5.47357L15.4298 5.04253C15.44 5.03668 15.449 5.03389 15.4604 5.03389V5.03382Z" fill="#404137"/>
   <path fill-rule="evenodd" clip-rule="evenodd" d="M8.95146 3.1483C8.90615 3.1483 8.86131 3.15973 8.82073 3.18314L6.64635 4.43289C6.56506 4.47971 6.51562 4.56999 6.51562 4.66367V7.17187C6.51562 7.26566 6.56511 7.35138 6.64635 7.3983L8.82073 8.6524C8.90203 8.69931 9.00089 8.69931 9.08218 8.6524L11.2566 7.3983C11.3377 7.35138 11.3873 7.26566 11.3873 7.17187V4.66367C11.3873 4.56985 11.3379 4.47971 11.2566 4.43289L9.08218 3.18314C9.04161 3.15973 8.99677 3.1483 8.95146 3.1483ZM21.9542 5.38656C21.9455 5.38656 21.9359 5.38656 21.928 5.39088L21.5097 5.63473C21.494 5.64365 21.4836 5.66024 21.4836 5.67827V6.15727C21.4836 6.1753 21.494 6.19183 21.5097 6.20082L21.928 6.44031C21.9437 6.44936 21.9605 6.44936 21.976 6.44031L22.3943 6.20082C22.4098 6.1919 22.4204 6.1753 22.4204 6.15727V5.67827C22.4204 5.66024 22.4098 5.6437 22.3943 5.63473L21.976 5.39088C21.9682 5.38628 21.9629 5.38656 21.9542 5.38656Z" fill="#83CD29"/>
   <path d="M10.5329 11.1029C10.6428 11.0307 10.7671 11 10.8949 11C11.0227 11 11.1478 11.0307 11.2569 11.1029L14.7364 13.4349C14.9616 13.586 15.0984 13.8698 15.0984 14.1723V18.8278C15.0984 19.1301 14.9616 19.4131 14.7364 19.5651L11.2569 21.8886C11.1458 21.9632 11.0237 22 10.8949 22C10.7678 22 10.644 21.9632 10.5329 21.8886L9.36568 21.0912C9.19252 20.9787 9.2791 20.9428 9.33613 20.9197C9.56751 20.8266 9.6139 20.8077 9.86064 20.6454C9.88635 20.6287 9.9227 20.6273 9.94929 20.6454L10.8432 21.2627C10.8757 21.2833 10.9168 21.2833 10.9466 21.2627L14.4261 18.9392C14.4586 18.9178 14.4778 18.8722 14.4778 18.8278V14.1723C14.4778 14.1267 14.4518 14.0839 14.4187 14.0608L10.9466 11.7373C10.9144 11.7157 10.8757 11.7157 10.8432 11.7373L7.37106 14.0608C7.33737 14.0832 7.31196 14.1281 7.31196 14.1723V18.8278C7.31196 18.8722 7.33767 18.9095 7.37106 18.9307L8.31666 19.5737C8.83319 19.8733 9.15144 19.5167 9.15144 19.1621V14.5666C9.15144 14.5017 9.19902 14.4552 9.25487 14.4552H9.69073C9.7457 14.4552 9.79415 14.5017 9.79415 14.5666V19.1621C9.79415 19.9622 9.42094 20.4224 8.7673 20.4224L8.75827 20.4224C8.5614 20.4225 8.3969 20.4225 7.96205 20.1738L7.0534 19.5651C6.82823 19.4142 6.69141 19.1301 6.69141 18.8278V14.1723C6.69141 13.8698 6.82823 13.5854 7.0534 13.4349L10.5329 11.1029Z" fill="#83CD29"/>
   <path d="M16.0588 11.2401V11.1201H16.7606V11.2401H16.4651V12.1232H16.3469V11.2401H16.0588Z" fill="#83CD29"/>
   <path d="M16.864 12.1232V11.1201L17.0339 11.12L17.2777 11.9688L17.5289 11.12H17.6914V12.1231H17.5806V11.5315C17.5806 11.5108 17.5801 11.4756 17.5806 11.4287C17.5817 11.3805 17.588 11.3283 17.588 11.2743L17.3368 12.1231H17.2186L16.9748 11.2743V11.3001C16.9748 11.3249 16.9734 11.3693 16.9748 11.4202C16.9757 11.4701 16.9748 11.5075 16.9748 11.5316V12.1232H16.864Z" fill="#83CD29"/>
   <path d="M10.2448 15.6298C10.2448 14.816 10.8349 14.3266 11.8257 14.3266C12.9392 14.3266 13.492 14.7792 13.5618 15.7413C13.5644 15.7745 13.5511 15.8023 13.5322 15.827C13.513 15.8501 13.4861 15.8699 13.4584 15.8699H13.0077C12.961 15.8699 12.9211 15.8281 12.9117 15.7756C12.8035 15.2169 12.5396 15.0382 11.8257 15.0382C11.0264 15.0382 10.9392 15.362 10.9392 15.6041C10.9392 15.8974 11.042 15.9785 12.1212 16.1443C13.1892 16.3081 13.7021 16.542 13.7021 17.4132C13.7021 18.292 13.0671 18.7935 11.9661 18.7935C10.4451 18.7935 10.1266 17.9899 10.1266 17.3103C10.1266 17.2457 10.1745 17.1902 10.23 17.1902H10.6807C10.7309 17.1902 10.7687 17.2362 10.7767 17.2931C10.8444 17.824 11.0465 18.0905 11.9661 18.0905C12.698 18.0905 13.0077 17.8982 13.0077 17.4475C13.0077 17.1876 12.9191 16.9937 11.7814 16.8644C10.8305 16.7553 10.2448 16.5127 10.2448 15.6298Z" fill="#83CD29"/>
</svg>
