<svg width="21" height="18" viewBox="0 0 21 18" fill="none" xmlns="http://www.w3.org/2000/svg">
   <path d="M17.2657 5.83405C17.042 5.76059 16.8167 5.69218 16.5897 5.62882C16.6274 5.48162 16.6621 5.33359 16.6939 5.18471C17.2057 2.79172 16.871 0.863878 15.7288 0.229253C14.6351 -0.379717 12.8414 0.254907 11.032 1.77229C10.8541 1.92201 10.6798 2.07621 10.5092 2.2349C10.3954 2.12948 10.2788 2.0263 10.1592 1.92537C8.26272 0.302851 6.36186 -0.380558 5.22091 0.256169C4.1272 0.866401 3.80215 2.67859 4.26282 4.94667C4.3089 5.17097 4.36067 5.39429 4.41813 5.61662C4.14908 5.69022 3.88921 5.76886 3.64072 5.85213C1.42007 6.59863 0 7.76905 0 8.98278C0 10.2369 1.52419 11.4944 3.83978 12.2568C4.0276 12.3182 4.21718 12.3753 4.4085 12.428C4.34638 12.666 4.2914 12.9067 4.24357 13.1501C3.80609 15.3791 4.14733 17.1484 5.23884 17.7548C6.36623 18.381 8.25747 17.7376 10.101 16.1857C10.2468 16.0629 10.3927 15.9332 10.5385 15.7967C10.7228 15.968 10.9124 16.1343 11.1072 16.2955C12.8922 17.775 14.6548 18.3726 15.7445 17.7645C16.871 17.1362 17.2372 15.2352 16.7617 12.9226C16.7252 12.7459 16.6832 12.5657 16.6357 12.3817C16.7687 12.3439 16.8989 12.3048 17.0264 12.2644C19.4325 11.496 21 10.2537 21 8.98404C20.9991 7.76442 19.5336 6.58643 17.2657 5.83405ZM11.6221 2.42415C13.1721 1.1242 14.6211 0.611121 15.2817 0.977849C15.9847 1.36855 16.2581 2.94397 15.8163 5.01018C15.7871 5.14475 15.7556 5.27891 15.7218 5.41265C14.7968 5.21039 13.8588 5.06765 12.914 4.98536C12.3731 4.23629 11.7801 3.52322 11.1392 2.85102C11.2961 2.70467 11.4568 2.56238 11.6213 2.42415H11.6221ZM6.20043 10.0199C6.3903 10.3732 6.58877 10.7221 6.79584 11.0667C7.00671 11.4182 7.22647 11.7646 7.45513 12.1059C6.80506 12.0379 6.15906 11.9378 5.51971 11.806C5.7052 11.229 5.93357 10.6297 6.20043 10.0199ZM6.20043 7.98732C5.93794 7.39054 5.7157 6.80344 5.53327 6.23653C6.13262 6.10741 6.77134 6.00185 7.43719 5.92195C7.21407 6.25671 6.99942 6.59639 6.79322 6.94096C6.58702 7.28554 6.38898 7.63433 6.19912 7.98732H6.20043ZM6.67728 9.00381C6.95377 8.44951 7.25155 7.90587 7.57062 7.37288C7.8894 6.84017 8.22874 6.31966 8.58864 5.81134C9.21337 5.76592 9.85384 5.74195 10.5009 5.74195C11.1479 5.74195 11.7923 5.76592 12.4166 5.81176C12.7727 6.31896 13.11 6.83765 13.4285 7.36783C13.747 7.89802 14.0487 8.43914 14.3337 8.99119C14.0525 9.54745 13.7515 10.0933 13.4307 10.6289C13.1125 11.1616 12.7771 11.6836 12.4245 12.195C11.8011 12.2371 11.1558 12.2602 10.4996 12.2602C9.84334 12.2602 9.2103 12.2404 8.59827 12.2022C8.23574 11.6922 7.89363 11.1694 7.57193 10.6339C7.25024 10.0984 6.95159 9.55502 6.67597 9.00381H6.67728ZM14.2072 11.0608C14.4187 10.7081 14.6217 10.3507 14.8162 9.98876C15.0829 10.57 15.3182 11.1641 15.5214 11.7686C14.8745 11.9086 14.2205 12.016 13.5619 12.0903C13.7842 11.7513 13.9993 11.4081 14.2072 11.0608ZM14.8074 7.98774C14.6138 7.63306 14.4124 7.2826 14.2033 6.93634C13.9991 6.59484 13.7864 6.25755 13.565 5.92447C14.2348 6.00606 14.8774 6.11456 15.4799 6.24704C15.2862 6.83773 15.0617 7.41869 14.8074 7.98774ZM10.5096 3.46882C10.9465 3.9277 11.359 4.40746 11.7455 4.9063C10.9187 4.86845 10.0912 4.86845 9.26324 4.9063C9.67141 4.38733 10.0892 3.90579 10.5096 3.46882ZM5.67239 1.0035C6.37498 0.611542 7.92848 1.17173 9.56598 2.57093C9.67054 2.66051 9.77597 2.75429 9.88096 2.85144C9.23671 3.52355 8.63955 4.236 8.09341 4.9841C7.15075 5.06575 6.2146 5.20623 5.2909 5.40466C5.23753 5.1983 5.18941 4.99055 5.14654 4.78139C4.75061 2.83714 5.01267 1.37149 5.67239 1.0035ZM4.64824 11.5953C4.47325 11.5474 4.30045 11.4953 4.12983 11.4393C3.10612 11.1028 2.26047 10.6638 1.67993 10.1856C1.1602 9.75703 0.896838 9.32932 0.896838 8.98278C0.896838 8.24638 2.03691 7.30685 3.93821 6.6697C4.17708 6.5898 4.41798 6.51676 4.66093 6.45059C4.9433 7.32296 5.28528 8.17645 5.68464 9.00549C5.28052 9.846 4.93431 10.7111 4.64824 11.5953ZM9.50998 15.5347C8.69495 16.221 7.87861 16.7076 7.15895 16.9528C6.51235 17.1728 5.99744 17.1791 5.68639 17.0062C5.02404 16.6382 4.74843 15.2172 5.12422 13.3112C5.16885 13.0869 5.21989 12.8626 5.27734 12.6383C6.21029 12.8315 7.15583 12.9634 8.10741 13.0332C8.65888 13.7852 9.26098 14.5017 9.90984 15.178C9.77947 15.3013 9.64604 15.4199 9.50998 15.5347ZM10.5346 14.5581C10.1093 14.1161 9.68497 13.627 9.27111 13.1013C9.6733 13.1165 10.0828 13.124 10.4996 13.124C10.9274 13.124 11.3509 13.1152 11.7683 13.0971C11.3831 13.604 10.9713 14.0916 10.5346 14.5581ZM15.9821 15.7605C15.857 16.4099 15.6054 16.843 15.2944 17.0163C14.6325 17.3856 13.2172 16.9057 11.6913 15.6402C11.5163 15.4956 11.3413 15.3404 11.1632 15.1776C11.7994 14.4986 12.3874 13.7792 12.9232 13.0244C13.8801 12.9464 14.8302 12.8052 15.7668 12.6017C15.8097 12.7682 15.8476 12.9314 15.8806 13.0912C16.091 14.1132 16.1212 15.0376 15.9821 15.7605ZM16.7433 11.4439C16.6287 11.4805 16.5106 11.5158 16.3907 11.5503C16.097 10.6738 15.7417 9.81756 15.3272 8.98741C15.7261 8.16833 16.0675 7.32448 16.3491 6.46153C16.5639 6.52167 16.7726 6.58475 16.9734 6.65162C18.9167 7.29592 20.1023 8.24975 20.1023 8.98278C20.1023 9.76502 18.8218 10.7803 16.7433 11.4439Z" fill="#53C1DE"/>
   <path d="M10.4938 10.7089C10.8716 10.71 11.2413 10.6041 11.5561 10.4045C11.8709 10.205 12.1165 9.9207 12.262 9.58774C12.4074 9.25477 12.4461 8.88809 12.3732 8.53411C12.3002 8.18013 12.1189 7.85479 11.8521 7.59928C11.5854 7.34376 11.2452 7.16957 10.8747 7.09875C10.5042 7.02794 10.1201 7.06369 9.77087 7.20147C9.42167 7.33926 9.12314 7.57289 8.91309 7.87277C8.70304 8.17265 8.59092 8.5253 8.59091 8.88607C8.59039 9.12508 8.6392 9.36185 8.73457 9.58284C8.82994 9.80383 8.96998 10.0047 9.1467 10.174C9.32342 10.3433 9.53336 10.4776 9.7645 10.5694C9.99564 10.6612 10.2435 10.7086 10.4938 10.7089Z" fill="#53C1DE"/>
</svg>
